{
  "accessors": [
    {
      "bufferView": 1,
      "componentType": 5126,
      "count": 65532,
      "max": [
        -1.5569440126419067,
        -4.5601072311401367,
        3.9552199840545654
      ],
      "min": [
        -6.8754019737243652,
        -11.301332473754883,
        -5.9951128959655762
      ],
      "type": "VEC3"
    },
    {
      "bufferView": 1,
      "byteOffset": 786384,
      "componentType": 5126,
      "count": 65532,
      "max": [
        0.99856996536254883,
        0.99999761581420898,
        0.99990707635879517
      ],
      "min": [
        -0.99999511241912842,
        -0.99995523691177368,
        -0.95141780376434326
      ],
      "type": "VEC3"
    },
    {
      "bufferView": 0,
      "componentType": 5125,
      "count": 357081,
      "max": [
        65531
      ],
      "min": [
        0
      ],
      "type": "SCALAR"
    },
    {
      "bufferView": 1,
      "byteOffset": 1572768,
      "componentType": 5126,
      "count": 65532,
      "max": [
        -1.3379449844360352,
        -4.5633749961853027,
        3.9552199840545654
      ],
      "min": [
        -6.2376079559326172,
        -11.506901741027832,
        -5.9536781311035156
      ],
      "type": "VEC3"
    },
    {
      "bufferView": 1,
      "byteOffset": 2359152,
      "componentType": 5126,
      "count": 65532,
      "max": [
        0.99999898672103882,
        0.99997246265411377,
        0.99995440244674683
      ],
      "min": [
        -0.99703395366668701,
        -0.9999963641166687,
        -0.99265801906585693
      ],
      "type": "VEC3"
    },
    {
      "bufferView": 0,
      "byteOffset": 1428324,
      "componentType": 5125,
      "count": 335949,
      "max": [
        65531
      ],
      "min": [
        0
      ],
      "type": "SCALAR"
    },
    {
      "bufferView": 1,
      "byteOffset": 3145536,
      "componentType": 5126,
      "count": 65532,
      "max": [
        4.5146570205688477,
        -3.8610849380493164,
        3.9067530632019043
      ],
      "min": [
        -6.7895498275756836,
        -11.022577285766602,
        -4.80865478515625
      ],
      "type": "VEC3"
    },
    {
      "bufferView": 1,
      "byteOffset": 3931920,
      "componentType": 5126,
      "count": 65532,
      "max": [
        1,
        0.99999630451202393,
        0.999267578125
      ],
      "min": [
        -0.99993830919265747,
        -1,
        -0.99999850988388062
      ],
      "type": "VEC3"
    },
    {
      "bufferView": 0,
      "byteOffset": 2772120,
      "componentType": 5125,
      "count": 341463,
      "max": [
        65531
      ],
      "min": [
        0
      ],
      "type": "SCALAR"
    },
    {
      "bufferView": 1,
      "byteOffset": 4718304,
      "componentType": 5126,
      "count": 65532,
      "max": [
        4.9083681106567383,
        -3.9315528869628906,
        4.1388998031616211
      ],
      "min": [
        -0.6271740198135376,
        -8.8788118362426758,
        -4.5390148162841797
      ],
      "type": "VEC3"
    },
    {
      "bufferView": 1,
      "byteOffset": 5504688,
      "componentType": 5126,
      "count": 65532,
      "max": [
        0.9999997615814209,
        0.99992722272872925,
        0.99991744756698608
      ],
      "min": [
        -0.99993830919265747,
        -0.99999409914016724,
        -0.9999995231628418
      ],
      "type": "VEC3"
    },
    {
      "bufferView": 0,
      "byteOffset": 4137972,
      "componentType": 5125,
      "count": 335322,
      "max": [
        65531
      ],
      "min": [
        0
      ],
      "type": "SCALAR"
    },
    {
      "bufferView": 1,
      "byteOffset": 6291072,
      "componentType": 5126,
      "count": 65532,
      "max": [
        4.8656611442565918,
        -5.186884880065918,
        4.1457400321960449
      ],
      "min": [
        -0.64363497495651245,
        -9.980341911315918,
        -3.7500519752502441
      ],
      "type": "VEC3"
    },
    {
      "bufferView": 1,
      "byteOffset": 7077456,
      "componentType": 5126,
      "count": 65532,
      "max": [
        0.99999678134918213,
        0.99999892711639404,
        0.99993211030960083
      ],
      "min": [
        -0.99999392032623291,
        -0.99866068363189697,
        -0.9999995231628418
      ],
      "type": "VEC3"
    },
    {
      "bufferView": 0,
      "byteOffset": 5479260,
      "componentType": 5125,
      "count": 330150,
      "max": [
        65531
      ],
      "min": [
        0
      ],
      "type": "SCALAR"
    },
    {
      "bufferView": 1,
      "byteOffset": 7863840,
      "componentType": 5126,
      "count": 65532,
      "max": [
        4.908301830291748,
        -6.9504661560058594,
        4.137598991394043
      ],
      "min": [
        -0.53345102071762085,
        -10.522872924804688,
        -4.553886890411377
      ],
      "type": "VEC3"
    },
    {
      "bufferView": 1,
      "byteOffset": 8650224,
      "componentType": 5126,
      "count": 65532,
      "max": [
        0.99999469518661499,
        0.99999326467514038,
        0.99988025426864624
      ],
      "min": [
        -0.9999929666519165,
        -0.99993789196014404,
        -0.99998676776885986
      ],
      "type": "VEC3"
    },
    {
      "bufferView": 0,
      "byteOffset": 6799860,
      "componentType": 5125,
      "count": 319002,
      "max": [
        65531
      ],
      "min": [
        0
      ],
      "type": "SCALAR"
    },
    {
      "bufferView": 1,
      "byteOffset": 9436608,
      "componentType": 5126,
      "count": 43609,
      "max": [
        4.699458122253418,
        -6.8523688316345215,
        3.2550780773162842
      ],
      "min": [
        -0.038442999124526978,
        -10.857919692993164,
        -5.7450971603393555
      ],
      "type": "VEC3"
    },
    {
      "bufferView": 1,
      "byteOffset": 9959916,
      "componentType": 5126,
      "count": 43609,
      "max": [
        0.99997329711914062,
        0.99997913837432861,
        0.99554383754730225
      ],
      "min": [
        -0.9999542236328125,
        -0.99993789196014404,
        -0.99996161460876465
      ],
      "type": "VEC3"
    },
    {
      "bufferView": 0,
      "byteOffset": 8075868,
      "componentType": 5125,
      "count": 230988,
      "max": [
        43608
      ],
      "min": [
        0
      ],
      "type": "SCALAR"
    }
  ],
  "asset": {
    "extras": {
      "author": "The British Museum (https://sketchfab.com/britishmuseum)",
      "license": "CC-BY-NC-SA-4.0 (http://creativecommons.org/licenses/by-nc-sa/4.0/)",
      "source": "https://sketchfab.com/3d-models/comparison-of-mummy-mask-scans-ed1d5bb92baa4a55b896f27a8c205e6a",
      "title": "Comparison of mummy mask scans."
    },
    "generator": "Sketchfab-6.32.0",
    "version": "2.0"
  },
  "bufferViews": [
    {
      "buffer": 0,
      "byteLength": 8999820,
      "byteOffset": 0,
      "name": "floatBufferViews",
      "target": 34963
    },
    {
      "buffer": 0,
      "byteLength": 10483224,
      "byteOffset": 8999820,
      "byteStride": 12,
      "name": "floatBufferViews",
      "target": 34962
    }
  ],
  "buffers": [
    {
      "byteLength": 19483044,
      "uri": "scene.bin"
    }
  ],
  "materials": [
    {
      "doubleSided": true,
      "emissiveFactor": [
        0,
        0,
        0
      ],
      "name": "Scene_-_Root",
      "pbrMetallicRoughness": {
        "baseColorFactor": [
          1,
          1,
          1,
          1
        ],
        "metallicFactor": 0,
        "roughnessFactor": 0.59999999999999998
      }
    }
  ],
  "meshes": [
    {
      "primitives": [
        {
          "attributes": {
            "NORMAL": 1,
            "POSITION": 0
          },
          "indices": 2,
          "material": 0,
          "mode": 4
        }
      ]
    },
    {
      "primitives": [
        {
          "attributes": {
            "NORMAL": 4,
            "POSITION": 3
          },
          "indices": 5,
          "material": 0,
          "mode": 4
        }
      ]
    },
    {
      "primitives": [
        {
          "attributes": {
            "NORMAL": 7,
            "POSITION": 6
          },
          "indices": 8,
          "material": 0,
          "mode": 4
        }
      ]
    },
    {
      "primitives": [
        {
          "attributes": {
            "NORMAL": 10,
            "POSITION": 9
          },
          "indices": 11,
          "material": 0,
          "mode": 4
        }
      ]
    },
    {
      "primitives": [
        {
          "attributes": {
            "NORMAL": 13,
            "POSITION": 12
          },
          "indices": 14,
          "material": 0,
          "mode": 4
        }
      ]
    },
    {
      "primitives": [
        {
          "attributes": {
            "NORMAL": 16,
            "POSITION": 15
          },
          "indices": 17,
          "material": 0,
          "mode": 4
        }
      ]
    },
    {
      "primitives": [
        {
          "attributes": {
            "NORMAL": 19,
            "POSITION": 18
          },
          "indices": 20,
          "material": 0,
          "mode": 4
        }
      ]
    }
  ],
  "nodes": [
    {
      "children": [
        1
      ],
      "name": "RootNode (gltf orientation matrix)",
      "rotation": [
        -0.70710678118654746,
        -0,
        -0,
        0.70710678118654757
      ]
    },
    {
      "children": [
        2
      ],
      "matrix": [
        0.99936527013778687,
        0,
        -0.03562459722161293,
        0,
        0,
        1,
        0,
        0,
        0.03562459722161293,
        0,
        0.99936527013778687,
        0,
        0.03231777623295784,
        0,
        -0.03562501072883606,
        1
      ],
      "name": "RootNode (model correction matrix)"
    },
    {
      "children": [
        3,
        4,
        5,
        6,
        7,
        8,
        9
      ],
      "name": "Mask2.obj.cleaner.materialmerger.gles"
    },
    {
      "mesh": 0,
      "name": ""
    },
    {
      "mesh": 1,
      "name": ""
    },
    {
      "mesh": 2,
      "name": ""
    },
    {
      "mesh": 3,
      "name": ""
    },
    {
      "mesh": 4,
      "name": ""
    },
    {
      "mesh": 5,
      "name": ""
    },
    {
      "mesh": 6,
      "name": ""
    }
  ],
  "scene": 0,
  "scenes": [
    {
      "name": "OSG_Scene",
      "nodes": [
        0
      ]
    }
  ]
}

