{
    "asset" : {
        "generator" : "Khronos glTF Blender I/O v0.9.36",
        "version" : "2.0"
    },
    "scene" : 0,
    "scenes" : [
        {
            "name" : "Scene",
            "nodes" : [
                0
            ]
        }
    ],
    "nodes" : [
        {
            "mesh" : 0,
            "name" : "Athena_Athenea_Altes_Museum_Berlin",
            "rotation" : [
                0.7071068286895752,
                0,
                0,
                0.7071067094802856
            ],
            "scale" : [
                1.2960809469223022,
                1.2960809469223022,
                1.2960809469223022
            ],
            "translation" : [
                0,
                -0.8473876714706421,
                0
            ]
        }
    ],
    "materials" : [
        {
            "doubleSided" : true,
            "name" : "Material.001",
            "pbrMetallicRoughness" : {
                "baseColorFactor" : [
                    0.800000011920929,
                    0.800000011920929,
                    0.800000011920929,
                    1
                ],
                "metallicFactor" : 0,
                "roughnessFactor" : 0.5
            }
        }
    ],
    "meshes" : [
        {
            "name" : "Athena_Athenea_Altes_Museum_Berlin",
            "primitives" : [
                {
                    "attributes" : {
                        "POSITION" : 0,
                        "NORMAL" : 1,
                        "TEXCOORD_0" : 2
                    },
                    "indices" : 3,
                    "material" : 0
                }
            ]
        }
    ],
    "accessors" : [
        {
            "bufferView" : 0,
            "componentType" : 5126,
            "count" : 43318,
            "max" : [
                0.26834604144096375,
                0.30871304869651794,
                -0.09604407846927643
            ],
            "min" : [
                -0.2899169325828552,
                -0.3761405646800995,
                -1.1253962516784668
            ],
            "type" : "VEC3"
        },
        {
            "bufferView" : 1,
            "componentType" : 5126,
            "count" : 43318,
            "type" : "VEC3"
        },
        {
            "bufferView" : 2,
            "componentType" : 5126,
            "count" : 43318,
            "type" : "VEC2"
        },
        {
            "bufferView" : 3,
            "componentType" : 5123,
            "count" : 118512,
            "type" : "SCALAR"
        }
    ],
    "bufferViews" : [
        {
            "buffer" : 0,
            "byteLength" : 519816,
            "byteOffset" : 0
        },
        {
            "buffer" : 0,
            "byteLength" : 519816,
            "byteOffset" : 519816
        },
        {
            "buffer" : 0,
            "byteLength" : 346544,
            "byteOffset" : 1039632
        },
        {
            "buffer" : 0,
            "byteLength" : 237024,
            "byteOffset" : 1386176
        }
    ],
    "buffers" : [
        {
            "byteLength" : 1623200,
            "uri" : "mathena.bin"
        }
    ]
}
