<!-- Generator: Adobe Illustrator 24.0.0, SVG Export Plug-In  -->
<svg version="1.1" xmlns="http://www.w3.org/2000/svg" xmlns:xlink="http://www.w3.org/1999/xlink" x="0px" y="0px" width="2560px"
	 height="1600px" viewBox="0 0 2560 1600" enable-background="new 0 0 2560 1600" xml:space="preserve">
	<path id="workBubble" d="M1115.8381,1239.4933c-25.1904,0.6964-50.3207-2.1097-75.4982-1.4326c-18.176,0.4889-36.43,0.718-54.4777,2.6577
		c-22.0588,2.3708-43.834,6.8853-65.0256,13.766c-26.6703,8.6597-52.5095,19.2721-76.9781,33.0304
		c-8.7614,4.9263-16.2928,11.5917-24.0304,17.9458c-13.1517,10.8002-25.3771,22.4651-34.4714,37.0122
		c-7.9494,12.7159-12.604,26.4761-14.6858,41.4521c-3.1655,22.7719,0.3867,44.5851,5.9479,66.5579
		c3.5327,13.9584,11.1294,24.9955,20.2399,35.4153c12.9359,14.7949,29.2549,25.0245,46.4647,34.0354
		c4.0979,2.1455,7.8667,4.9506,12.0388,6.9186c25.0698,11.8262,51.2176,20.3557,78.4659,25.595
		c13.4615,2.5884,26.97,4.9257,40.5342,6.7668c5.7233,0.7771,11.6496,0.9335,17.4778,1.1023
		c23.6731,0.6864,47.3559-0.009,70.9879-1.134c11.6584-0.5549,23.3832-1.0817,35.0365-2.5822
		c5.7252-0.7371,11.6404-0.8687,17.4741-1.1936c10.541-0.5873,21.017-1.7583,31.512-2.8955
		c15.7391-1.7052,31.0406-5.5804,46.453-8.7784c20.2996-4.212,38.166-14.5085,55.429-25.4921
		c7.8401-4.9882,13.5256-12.7657,19.5811-19.8489c7.7799-9.1005,16.1595-17.7782,22.4631-28.0081
		c9.9399-16.1312,17.4146-33.113,19.3033-52.4222c0.8639-8.8326,2.2333-17.6044,2.2684-26.5154
		c0.054-13.7217-3.7736-26.6852-8.1202-39.4503c-2.8071-8.244-5.0494-16.7377-10.3069-24.0895
		c-8.127-11.3638-18.3143-20.3541-29.5178-28.5215c-8.1042-5.9078-16.6556-10.9799-25.6006-15.3331
		c-16.278-7.922-16.8103-18.2896-8.2993-33.9716c7.4761-13.7754,20.4255-22.3297,33.3342-30.5806
		c14.7001-9.3955,31.1278-15.1001,46.9962-22.0018c3.6929-1.6061,7.3966-3.2067,10.9832-5.0302
		c2.4124-1.2263,2.9208-4.5394,0.9878-6.4235c-2.6056-2.5394-5.6543-4.0513-9.4524-4.6285
		c-11.0413-1.6781-22.0612-0.9211-33.0034,0.2056c-15.072,1.5521-29.8361,4.5674-44.0504,10.29
		c-17.4796,7.0374-33.8536,16.3201-50.9615,24.088c-16.0741,7.2988-31.774,15.5062-48.996,20.0082
		c-6.5933,1.7235-13.3297,2.6876-20.0033,3.986"/>
	<path id="queMark" d="M1659.8381,390.7585c-6.6901,2.1349-13.6823,0.9887-20.5267,1.7631c-15.1013,1.7085-29.7548,5.0964-43.3922,11.408
		c-20.2849,9.3883-41.6,16.9704-59.5564,30.8471c-10.0465,7.764-18.6643,17.0302-26.4871,26.9891
		c-5.8923,7.501-11.869,15.0344-14.5237,24.4668c-2.9484,10.4767-4.6964,20.628,1.3639,31.0573
		c11.5529,19.881,39.5543,25.0729,56.1981,9.0048c5.6611-5.4652,9.4879-12.4075,15.4115-17.5875
		c11.7225-10.2509,21.0331-23.0934,34.4865-31.5174c17.8403-11.171,36.4946-17.7823,57.4971-10.3729
		c11.8312,4.1738,23.8202,7.7373,36.0546,10.2923c9.1874,1.9187,18.6129,2.681,27.9463,3.847
		c10.3757,1.2962,20.4135,0.0858,30.5205-1.2819c9.4513-1.2789,18.3414-4.0756,26.5815-9.3248
		c9.2444-5.889,19.55-9.992,28.4545-16.5724c11.9619-8.8398,22.4774-19.0305,32.1614-30.3669
		c6.4391-7.5378,12.7074-15.2487,19.189-22.7596c13.8529-16.0526,26.3309-33.0127,33.7738-53.3228
		c4.9027-13.3784,6.8058-27.3062,9.9022-41.0307c2.7661-12.2607,3.1487-24.8321,1.6293-36.9612
		c-2.8184-22.4982-8.241-44.5537-22.7998-62.9281c-2.6477-3.3418-3.7678-7.3519-6.3698-10.6
		c-16.3275-20.3826-34.6292-38.4192-58.4957-50.0111c-5.2937-2.5711-10.4742-5.4272-15.4932-8.5006
		c-10.4857-6.4208-22.3428-7.0856-34.0295-8.4202c-10.3573-1.1827-20.7196-0.1339-30.9814,1.0863
		c-7.6976,0.9154-15.0742,3.6179-22.5344,5.808c-18.9081,5.5507-37.2875,12.3092-54.4845,22.0533
		c-10.2593,5.813-20.2805,12.1005-28.8933,20.1114c-9.4803,8.8179-19.772,17.0007-27.0223,27.9343
		c-3.8405,5.7914-7.0188,12.0294-6.6569,19.4446c0.1003,2.0546,0.541,4.1518,1.668,5.4132
		c6.7616,7.568,13.849,15.2312,23.9536,17.9071c11.2126,2.9694,21.8813,1.5815,31.532-6.2347
		c17.0721-13.8268,35.4777-25.2375,56.8655-31.7742c17.9625-5.4899,36.1361-7.6712,54.5327-5.5869
		c17.1732,1.9457,31.9175,9.5887,41.4503,24.8171c3.959,6.3244,5.5477,13.7144,7.016,20.9586
		c2.4694,12.1843,3.9874,24.5388,2.9879,36.9708c-1.4395,17.9027-5.8682,34.9834-14.3258,51.0441
		c-5.6584,10.7449-11.3518,21.3641-20.1266,29.9124c-12.9329,12.5993-28.0175,21.8058-44.9603,28.0595
		c-4.4316,1.6357-8.9375,3.5221-13.5265,3.7483c-4.9551,0.2443-10.0476-0.845-14.9775-1.8536
		c-9.4587-1.9352-19.0261-3.2489-28.4814-5.0963c-7.33-1.4321-14.6003-2.363-22.0309-2.3411"/>
	<path id="queBubble" d="M1107.8381,145.835c-1.1122,8.9648,0.387,17.7953,2.1348,26.4646c1.8828,9.3385,4.1622,18.7075,7.9551,27.4798
		c5.0089,11.5845,11.6121,22.2392,21.4264,30.51c5.0737,4.2756,10.2207,8.4769,15.504,12.4887
		c10.5856,8.0378,22.7522,12.4885,35.4464,16.1377c20.6299,5.9306,41.6085,10.3857,62.5814,14.6422
		c19.1783,3.8923,38.7535,5.964,58.4513,5.2205c17.9772-0.6785,32.8336,6.1021,46.0709,17.9307
		c14.4299,12.8944,28.126,26.5901,42.933,39.0626c15.9159,13.4067,33.0269,24.4701,53.4412,30.1924
		c9.7787,2.741,19.6676,3.4607,29.5575,4.7859c2.0016,0.2682,4.3982,0.0202,5.3462-1.575c0.9773-1.6443-0.6812-3.3568-1.802-4.9409
		c-6.2853-8.8824-15.8309-13.9136-24.1157-20.3718c-11.3613-8.8565-22.1898-18.1463-30.4009-30.1
		c-3.6019-5.2435-5.782-11.1519-6.4972-17.4779c-1.093-9.6684,5.4634-18.2188,16.4994-22.4056
		c10.6167-4.0276,21.7001-6.4259,32.9595-8.1392c18.5161-2.8175,36.515-7.4778,54.099-14.2016
		c9.1118-3.4842,16.9375-8.4668,23.8041-14.8451c11.0098-10.227,22.3773-20.4292,29.4844-33.9394
		c6.6892-12.7159,12.3479-25.9318,16.2106-39.8991c3.8083-13.7711,3.3851-27.5494,1.9813-41.5188
		c-0.9482-9.4368-2.4911-18.7443-6.1689-27.4427c-4.576-10.8226-13.2834-18.4641-21.9072-26.027
		c-16.4016-14.3839-36.6293-21.3103-56.4763-29.0437c-14.0328-5.4679-28.6956-7.4451-43.5142-8.9882
		c-14.3513-1.4944-28.64-3.6928-43.0166-4.795c-7.2933-0.5591-14.6528-0.9229-21.9883-1.1303
		c-13.9954-0.3958-27.998,0.3157-42.006-0.3984c-4.4374-0.2262-8.988,0.3154-13.493,0.3666
		c-23.1754,0.2633-46.3295-1.7254-69.4978-0.9397c-24.6531,0.8361-48.9432,3.7042-72.553,11.7842
		c-23.2535,7.9581-45.0955,18.358-63.8608,34.242c-18.0399,15.2699-31.6357,33.8273-37.0233,57.3925
		c-1.2722,5.5646-1.7188,11.3169-2.5775,16.9779c-0.1462,0.9638,0.4122,1.4682,1.0125,2.0013"/>
	<path id="work" d="M1411.3381,1070.546c-4.2852,4.0344-6.5513,9.282-9.0664,14.4633c-4.0981,8.4425-8.293,16.7849-10.4722,26.015
		c-2.9149,12.3458-4.7065,24.8229-4.8993,37.4984c-0.0441,2.8934-0.7994,4.9788-3.5676,5.9821
		c-4.0435,1.4657-7.0486,3.3202-7.1384,8.51c-0.0822,4.748-1.1743,6.5839,1.7518,11.6871c2.0989-1.0957,3.9642-2.1581,5.9879,0.7446
		c3.1716,4.5493,6.0469,9.0667,7.6088,14.5035c0.4357,1.5167-1.6224,2.9828-0.1298,4.15c-1.3925,2.8458,0.5906,5.1824,0.9537,7.501
		c-2.3905,0.7114-5.5267,7.0745-4.4482,8.8525c1.5264,2.5168,2.6647,5.2705,5.3539,7.1411
		c3.2749,2.2782,5.4772,5.6456,7.1241,9.3767c0.8767,1.9862,0.4713,3.2905-1.0583,4.5243
		c-1.1619-1.5221-4.8757-5.1127-6.9822-4.4424c-2.2485,0.7156-3.5945,2.9039-3.3838,4.9283
		c0.3907,3.7526-0.9252,7.0942,1.366,10.0107c-10.6298,1.4375-10.5601,1.4078-6.0421,12.0143
		c1.37,3.2164,1.7532,6.6887,0.026,9.9703c-3.9589,7.5221-4.6758,15.8307-5.9839,24.0011l-4,0.4996
		c-3.2751,0.932-5.391,6.6553-3.4415,9.9625c0.9998,1.6962,2.6083,3.0336,3.9415,4.5331l0.0507,0.5575
		c-1.6522,1.4496-1.4874,7.9026-0.0308,9.4204c0.6667,0.6946,1.5693,1.1359,2.4127,1.6328
		c5.3264,3.1405,6.2051,8.1747,4.7742,14.9248c-0.9034,4.2623-0.9524,9.0604,0.3418,13.4376
		c3.938,13.3196,11.0271,24.7657,20.3149,35.1257c4.0795,4.5505,9.689,9.5582,14.6365,12.3738l0.7816,1.3832
		c1.3329,4.6072,4.3031,7.6295,8.4562,10.0714c11.1906,6.5793,17.0374,15.9344,23.7902,26.5157
		c1.2498,1.958-0.7919,3.4115-0.1901,5.5615c3.2186,11.4974,8.5795,23.3756,17.7095,30.9844
		c-1.7494,3.4504-5.1748,5.6003-7.0227,9.3768c2.9324,5.7781,8.9341,8.2664,14.5299,10.964
		c3.8615,1.8616,6.6031,4.6461,8.3134,8.1748c1.5017,3.098,3.528,5.057,6.64,5.9049c8.5347,2.3257,11.1915,10.3348,16.5571,15.655
		c-2.5232,2.7709-4.4681,4.8666-7.0192,6.4415c-2.0393,1.2589-1.2006,5.5072,0.9216,7.9515
		c3.7407,4.3082,8.989,6.3779,13.5651,9.4197c9.5842,6.3705,19.5297,12.1105,29.885,17.2111
		c3.6865,1.8159,5.5599,1.6149,7.6147-1.6464c1.328-2.1078,3.2262-3.8771,4.4191-6.0453c3.5404-6.4353,9.7186-4.5477,14.5089-3.7375
		c11.9678,2.0242,24.0115,2.3796,36.0377,3.2899c3.0129,0.228,6.002,1.024,9.002-0.0255c2.8518,2.7017,6.412,7.8458,6.0327,11.4999
		c-0.1881,1.8132-0.1843,3.6771-0.0039,5.4921c0.5098,5.1252,4.4301,7.4507,8.9773,5.5154
		c3.3024-1.4055,6.5582-3.0958,10.0107-3.9447c20.5176-5.0443,40.6611-11.2767,60.4614-18.6212
		c1.3705-0.5082,3.6029-0.3667,3.5513-2.941c-0.0465-2.3197-1.0372-4.548-3.053-4.8306c-2.6738-0.375-3.7795-2.2898-5.4744-3.6688
		c1.2338-1.4325,10.1649-8.9091,11.9078-10.1233c16.4659-11.4723,34.1538-21.2444,49.0774-34.8737
		c1.7705-1.6167,4.0013-2.3383,6.0126-3.4852c2.5083,4.4824,4.0547,3.2533,8.4899,5.5182c2.3905,1.2209,4.7389,2.5496,6.9952,4.0018
		c3.1963,2.057,5.5817,0.7371,6.9575-2.0507c8.6383-17.5016,22.9114-31.1577,32.5593-47.9557
		c3.6871-6.4194,7.4575-12.7891,12.0466-18.6912c-1.0613-0.618-1.4325-1.059-2.0182-1.3622
		c-6.6326-3.4325-10.0848-3.8615-14.2804-10.4382c6.7722-13.2301,11.2407-36.0234,13.75-50.4841
		c3.6357-1.1827,7.0477-2.8783,10.5205-4.4534c3.3281-1.5094,7.1681-1.8849,10.2405-4.7634
		c-3.0083-18.7004-10.0001-36.3746-16.261-54.2634c-4.7501,1.7094-11.5,1.4995-11.5,1.4995
		c-3.0751-6.342-4.1906-13.2853-5.9269-20.0126c-2.7216-10.5452-7.5892-20.3536-10.1708-30.9476
		c-0.8556-3.5109-3.5956-5.2227-7.3939-3.5042c-1.3079,0.5918-2.8859,0.4192-4.0084,1.481c0,0,0.377-0.4148-8.9802-13.5098
		c-3.0167-4.2218-5.52-8.9037-11.0198-10.4827c-4.8464-12.9209-11.8126-18.7672-16.614-30.9451
		c-2.6871-6.7556-8.3582-12.3646-9.6576-19.5803c-1.1117-6.1724-2.1117-12.4259-4.8765-17.8782
		c-6.7004-13.2133-15.6915-24.7838-27.8981-33.5001c-1.4954-1.0679-10.6467-5.8724-11.9539-7.0624
		c-0.8771-3.8184-2.0046-8.5154-6.4891-8.2855c-9.7346,0.498-16.3865-6.6696-24.9651-8.8864
		c-2.2593-0.5839-4.8998-2.5248-5.0558-5.8204c-0.179-3.7787-2.2892-5.3895-5.9657-6.1204
		c-2.9583-0.5883-5.9532-0.5089-7.3459,1.7322l-0.6783-0.1108c-0.1666-0.1667,0.1892,0.135,0,0
		c-8.8604-6.3188-11.8324-6.0737-15.4904,3.9724l-0.5096,0.5261c-6.9972,0.2856-14.0223-0.6064-21,0.4999
		c-2.6189-1.25-7.5077-4.8071-10.8494-2.8303c-1.9543-2.157-3.0123-4.2762-3.2614-7.157
		c-0.5797-6.7069-9.619-12.6476-15.3893-10.5063c-5.5261-6.0632-16.5596-10.1868-21.1355-17.4087
		c-1.4967-2.3625-1.6735-3.9617-0.3099-6.0397c-12.6091-10.2294-14.6124-8.2024-21.5165-1.5802
		c-9.6737-4.7617-20.0581-7.0197-30.5376-8.9634c-10.0822-1.8698-20.3927-1.8257-30.4585-3.2859
		c-7.8242-1.1349-15.3593-0.7812-23.042-0.2104c-6.5073-6.9846-7.4172-10.4728-14.5073-16.9867
		c-2.5312-2.3256-3.4467-5.1021-3.0431-8.5113c0.208-1.7581,0.7035-4.1371-1.4769-4.916c-4.0479-1.446-4.0127-4.8233-4.502-8.2803
		c-5.3779-0.4064-10.17-2.1644-14.5692-5.6681c-3.1736-2.5276-7.3068-4.0944-11.4139-4.4944
		c-3.2965-0.3211-5.2223-1.481-5.9875-4.6263l-1-0.4999c-4.4072-0.3165-8.0173,1.9465-11.4465,4.0844
		c-5.0909,3.1738-5.675,5.72-4.0747,11.9161c0.4546,1.7604-0.119,3.4166-0.9686,4.9985c-1.5057,2.803-3.3696,6.046-2.3478,8.9343
		c2.61,7.3773-1.0703,16.3545,5.806,22.5852c0.2488,0.2256,0.0669,0.9678,0.0255,1.4641c-0.1919,2.3042,0.7164,3.4596,2.9371,4.63
		c4.3617,2.2985,8.2576,5.5786,10.0024,10.39C1404.1527,1059.6414,1408.6119,1064.2324,1411.3381,1070.546z"/>
	<path id="git" d="M1161.8381,951.5833c-4.2284,8.12-8.8882,9.9672-18.0082,9.0812c-6.1604-0.5984-12.6394-1.2191-17.417,4.9811
		c6.166,6.3092,12.4617,12.0693,20.941,14.3705c16.5353,4.4877,29.748,1.5793,37.5203-16.9213
		c0.9474-2.2553,0.9266-3.8824,3.3356-5.1791l1.5651-1.1404c3.66,4.6488,8.743,6.8523,14.5627,6.8885
		c2.0048,0.0125,3.5438-1.4288,5.5005-1.084c-6.7039,3.5202-1.6638,5.5955-3.7987,11.5683
		c-5.8054,16.2419-12.2389,32.2483-17.972,48.4938c-3.2992,9.3481-7.072,18.5158-10.2662,27.8978
		c-1.4175,4.1636-4.5358,7.4919-5.6322,11.9674c-0.734,2.996,0.0482,5.6722,0.9065,7.9495
		c0.8961,2.3773,3.5474,3.7683,6.8007,2.1659c3.1989-1.5758,6.2625-3.1066,9.0146-5.5153
		c9.8768-8.6444,17.2191-19.344,24.3032-30.1451c3.6742-5.6021,4.6284-12.6367,6.9512-18.9703
		c2.464-6.7184,5.4014-13.1007,8.6046-19.4677c4.3663-8.6784,8.3008-17.5857,11.1613-26.9248
		c0.3884-1.2682,0.9009-3.2067,2.9271-3.5212c0.5,0.6664,1.2308,1.2612,1.4637,2.0107c2.0212,6.5042,8.4958,6.8333,13.1053,7.5291
		c-1.8334,5.1651-3.9031,11.4364-6.1417,16.4195c-4.0542,9.0244-6.3767,18.5591-8.8427,28.0459
		c-0.9275,3.5677-2.6644,6.6744-4.0243,9.9996c-3.8016,9.2958-6.0439,18.9987-3.4517,28.9379
		c2.2305,8.5518,4.9313,17.0745,10.8948,24.0177c0.3062,0.3564,0.7159,0.6315,0.9882,1.0088c2.22,3.078,4.9198,5.26,9.0051,4.4758
		c4.9436-0.949,2.9166-5.332,3.3025-8.0096c0.7056-4.8969,0.4265-9.9803,0.1556-14.964
		c-0.6467-11.9019,2.8495-22.9778,6.5944-33.975c3.0919-9.0795,6.6548-17.9979,9.8832-27.0325l0,0
		c1.4846,2.4891,2.2167,2.736,4.5675,4.0229c-11.9696,21.011-4.2719,43.1593,18.0111,52.4572
		c3.2535,1.3574,6.5951,2.6155,10.0137,3.42c1.7803,0.4191,4.2657,0.8953,5.4286-1.4177c1.0463-2.0811,0.7462-4.0343-0.8986-6.02
		c-3.1234-3.7708-5.9269-7.7898-8.7109-11.8438c-6.3904-9.3051-7.2092-18.6014-2.3439-28.5982l13.515-2.9594
		c0,0,6.1306-0.9974,6.3757-4.5459c0.2866-4.1465-10.8094-8.3481-13.3907-9.4894c7.6954-19.9028,14.5713-40.0609,18.0717-60.6145
		c6.095-1.2898,11.2792,1.1871,16.4235-0.3823c5.3881-1.6439,11.0056-1.6553,16.4971-2.5325
		c6.3103-1.008,12.712,0.1683,19.03-1.3583c5.7695-1.3941,11.2944-3.5933,17.0076-4.9667
		c13.1913-3.1711,25.4795-8.3998,36.3973-16.2205c19.5889-14.0317,35.3738-31.5532,46.0999-53.3683
		c3.4386-6.9935,4.7914-14.8366,8.973-21.5065c22.2186,12.8798,24.9775,13.1162,42.3389,28.25
		c8.3545,7.2812,17.2412,12.4922,26.415,15.4883c5.0566,1.6514,9.5381,4.3887,13.8721,7.0361
		c2.624,1.6025,5.3359,3.2598,8.1494,4.6602c0.9131,0.4551,0.8672,0.4322,1.7979,0.9117c1.6514,4.0684,5.1396,6.6703,7.9951,8.0366
		c0.1396,0.0664,0.2861,0.0977,0.4307,0.0977c0.373,0,0.7314-0.21,0.9033-0.5684c0.2383-0.498,0.0273-1.0957-0.4707-1.334
		c-2.6865-1.2852-3.6079-1.7234-5.5339-4.5284c3.5493,1.7621,7.9176,3.7016,11.9265,4.4152
		c0.0596,0.0107,0.1191,0.0156,0.1768,0.0156c0.4756,0,0.8975-0.3398,0.9834-0.8242c0.0967-0.5439-0.2656-1.0635-0.8086-1.1602
		c-4.8662-0.8672-9.3672-3.1865-13.7197-5.4307c-0.9385-0.4834-1.8672-0.9629-2.79-1.4219
		c-2.7354-1.3613-5.4102-2.9951-7.9971-4.5752c-4.4326-2.708-9.0156-5.5078-14.2939-7.2305
		c-8.917-2.9131-17.5713-7.9912-25.7217-15.0957c-17.5205-15.2715-38.1924-26.7422-43.2878-29.3223
		c1.1608-1.684,1.2009-3.1606,2.7849-4.6523c9.7793,4.4805,17.9844,11.4502,25.918,18.1904
		c2.7861,2.3672,5.667,4.8145,8.5742,7.1182c1.6455,1.3047,3.2705,2.627,4.8926,3.9463
		c7.208,5.8623,14.6611,11.9248,23.5088,15.9639l0.5303,0.2412c2.6016,1.1748,5.291,2.3887,5.9482,5.4678
		c0.0996,0.4697,0.5146,0.791,0.9766,0.791c0.0693,0,0.1396-0.0068,0.21-0.0225c0.54-0.1152,0.8838-0.6465,0.7686-1.1865
		c-0.8672-4.0674-4.3125-5.623-7.0801-6.873l-0.5234-0.2373c-8.6143-3.9326-15.6396-9.6465-23.0771-15.6963
		c-1.6279-1.3242-3.2598-2.6514-4.9121-3.9619c-2.8809-2.2832-5.748-4.7188-8.5215-7.0752
		c-8.0371-6.8281-16.3486-13.8887-26.3809-18.4844c2.9849-5.1375,0.5256-11.5228,0.7688-16.9523
		c0.5986-13.358,1.2743-26.8365-2.686-39.9959c-2.2191-7.3737-3.8344-14.9741-7.2308-21.8923
		c-0.9955-2.0278-0.6204-3.4106,0.2333-4.5283c7.7238-10.1127,7.38-22.4413,9.2778-34.0662
		c0.9081-5.5616,1.9678-11.2078,1.7028-16.9717c-0.3175-6.9059-1.9202-8.8555-8.5455-8.4516
		c-11.4984,0.7009-23.0974,0.0972-34.4865,2.0504c-5.7521,0.9865-11.8143,1.1492-17.0162,4.4041
		c-10.6313-8.677-16.1565-8.9462-28.1062-15.2955c-5.3237-2.8287-9.955-6.6139-15.3611-9.2635
		c-13.3435-6.5395-27.3907-11.0797-41.5215-15.4646c-4.0731-1.264-7.9093-3.3767-12.0288-4.3911
		c-18.0439-4.4427-36.5948-4.5087-54.968-6.2237c-10.7456-1.0031-28.8518-0.1198-39.5144-0.8456
		c-3.5624-5.6252-10.2712-7.0048-14.9454-11.0594c-5.308-4.6047-11.8783-7.0184-17.9757-11.0036
		c-5.4528,5.0379-8.6437,12.0261-12.9993,18.1212c-3.136,4.3885-6.7538,8.4542-9.1971,13.3807
		c-0.8463,1.7067-1.4214,3.2289-1.3824,5.0567c-10.9594,8.2467-24.0844,18.2449-33.0931,28.9124
		c-13.8405,16.389-26.2484,27.2892-30.6012,49.1442c-7.8877-2.2598-15.73-5.2923-22.0044-7.6585
		c-7.8716-2.9678-15.3066-5.7715-25.1191-8.1655c-4.6089-1.1245-9.3374-2.0981-13.9102-3.0396
		c-6.7598-1.3916-13.7495-2.8306-20.4604-4.7817c-8.2603-2.4009-16.8824-3.374-26.355-2.9795
		c-9.1294,0.3818-18.4185-0.2041-27.3999-0.77c-3.9355-0.248-8.0044-0.5044-12.0137-0.6768
		c-0.5439-0.0142-1.0186,0.4043-1.042,0.9561c-0.0239,0.5518,0.4043,1.0181,0.9561,1.042
		c3.9893,0.1719,8.0483,0.4277,11.9736,0.6748c9.0327,0.5698,18.3716,1.1572,27.6094,0.772
		c9.252-0.3853,17.6646,0.563,25.713,2.9023c6.7876,1.9727,13.8174,3.4199,20.6157,4.8198
		c4.5552,0.938,9.2656,1.9077,13.8398,3.0239c9.6943,2.3652,17.0737,5.1475,24.8867,8.0938
		c6.3125,2.3799,12.8398,4.8413,20.8062,7.1235c0.0918,0.0264,1.3594,0.3621,1.4507,0.3621
		c-0.5553,2.7881-1.0548,6.3438-1.7075,9.4358c-11.6489-2.1602-24.8525-4.6089-38.1265-4.8228
		c-5.5786-0.0786-10.9062,1.0684-16.064,2.1885c-2.3291,0.5054-4.7373,1.0283-7.1191,1.4238
		c-14.2109,2.3599-28.2183,6.3921-41.7647,10.291c-6.4614,1.8599-13.1431,3.7832-19.7515,5.4971
		c-11.0566,2.8677-20.1304,5.1631-28.5566,7.2251c-0.5361,0.1309-0.8647,0.6724-0.7334,1.209
		c0.1113,0.4565,0.5205,0.7627,0.9702,0.7622c0.0786,0,0.1587-0.0093,0.2388-0.0288c8.4351-2.064,17.5176-4.3618,28.583-7.2319
		c6.6343-1.7202,13.3286-3.647,19.8027-5.5107c13.4918-3.8833,27.4424-7.8989,41.5391-10.2402
		c2.4307-0.4033,4.8633-0.9316,7.2158-1.4424c5.0474-1.0952,10.2725-2.2397,15.6074-2.1426
		c13.1064,0.2109,26.2222,2.6436,37.7944,4.7896c-1.9445,9.4352-3.9083,20.0399-3.4606,28.6441
		c0.3134,6.0196,1.3481,12.0054,1.855,18.0049c1.855,21.9608,8.5833,42.0705,21.5869,59.9778
		c2.0931,2.8824,4.2703,5.5923,6.9247,8.0799c9.574,8.9722,20.3672,16.5254,29.6415,25.8453
		c2.7297,2.7431,6.0486,4.9884,9.9399,6.0579c-1.7014,2.8305-1.2429,4.2307-2.6339,7.218c-1.7383,3.7328-4.0952,5.6832-8.131,5.397
		c-1.548-0.1099-2.6193,0.3783-3.5028,1.5386c-1.4249-0.6035-4.084,0.6679-5.4983,0.4862c-1.4874-0.191-2.6958,0.7291-4.0137,0.9373
		c-5.2892,0.836-10.5121,2.8643-16.0249,0.6684c-1.6675-0.6641-4.1292,1.4863-5.9467,1.9069
		c-3.749-3.7827-9.1763-4.3834-14.2203-2.3043c-3.7505-3.9175-10.0066-4.3743-14.2711-8.0297
		c-1.1823-1.0134-0.7075-0.9449-2.2051-1.3767c-1.8081-1.792-2.8784-4.6611-5.8311-4.5361l-0.3304-0.2089
		c-0.6592-2.4226-2.1943-4.1609-4.6903-4.931c-2.8586-2.8821-5.988-5.5712-10.0723-5.2953
		c-0.8765-2.7343-3.0811-3.5878-5.8746-4.389c-4.9705-1.3076-9.9513-1.5717-15.0217-1.4359
		c-2.2283,0.0598-4.4385,0.2155-5.4567,2.5351c-0.771,1.7563,0.7172,3.1077,1.4945,4.4583
		c2.2111,3.8424,5.3479,6.9053,9.4846,8.4603c8.0846,3.0389,12.4385,9.8781,16.3142,16.6471
		c5.109,8.9226,9.9172,17.8348,17.6226,24.9432c13.5184,12.4712,28.9666,17.2807,47.0469,12.9746
		C1156.137,950.9414,1159.0048,950.7052,1161.8381,951.5833"/>
	<path id="mathBubble" d="M754.8381,750.1462c-7.7422,2.1458-13.0377,7.8416-16.8102,14.1098c-8.8736,14.7435-18.7338,29.0772-23.6827,45.8735
		c-2.5957,8.8095-3.7627,17.85-4.5633,26.9846c-0.8635,9.852-1.3272,19.6443,0.0103,29.502
		c1.2168,8.9678,2.3707,17.9681,2.9269,26.9926c0.3464,5.6218-0.0185,11.321-0.239,16.9929
		c-0.6925,17.8109-11.4103,31.447-18.7538,46.4252c-8.1697,16.6631-11.9288,34.15-13.0214,52.5305
		c-0.5375,9.0428-0.0107,18.0132,0.2445,26.9963c0.2456,8.6427,3.8382,16.677,5.8945,24.9939
		c4.2956,17.374,13.1927,32.4368,25.181,45.3134c8.2545,8.8663,19.0644,14.9406,29.8183,20.6578
		c15.2105,8.0868,31.5569,13.2334,48.018,17.9227c12.55,3.575,25.2375,6.7516,37.9976,9.4814
		c12.3214,2.6361,24.8206,4.0598,37.4669,4.8048c11.3528,0.6688,22.6802,0.8917,34.011,0.7096
		c12.9492-0.2079,25.7113-2.4906,38.5102-4.3567c14.3505-2.0922,27.8083-7.2249,41.455-11.6683
		c6.1271-1.995,11.5398-5.8143,16.5015-9.9277c25.1626-20.8606,43.6743-46.2256,53.1553-77.8978
		c2.7948-9.3361,1.4429-18.3416,0.3792-27.5276c-3.087-26.6606-15.8362-49.03-31.6078-69.8964
		c-4.83-6.3903-11.7574-10.9261-17.9589-15.9949c-10.9249-8.9295-21.9927-17.6836-34.3944-24.6431
		c-11.9283-6.6937-24.5483-10.743-38.0129-13.0758c-13.2867-2.302-26.6906-3.2108-40.0355-4.7668
		c-6.1157-0.7131-12.3312-0.4194-18.5074-0.8163c-7.1405-0.4588-14.3173-1.0233-21.4754-1.4059
		c-22.2046-1.1872-43.7621-5.7155-62.9215-17.4943c-13.8798-8.5331-22.7941-21.7198-29.597-36.3437
		c-3.2518-6.9903-5.6392-14.1726-5.488-21.9982c0.2645-13.6969-0.5358-27.4996,2.5934-40.9653
		c1.7142-7.3771,3.2815-14.8459,7.2941-21.5817c2.2978-3.8572,0.2828-7.9318-3.8884-9.9304"/>
	<path id="gitBubble" d="M1732.8381,590.1962c-6.1141,1.1479-12.4196,1.1953-18.5016,1.2316c-15.1166,0.0902-28.8929,4.5524-42.4977,10.2664
		c-12.2131,5.1296-23.7448,11.7292-34.8379,18.7497c-10.7557,6.8069-19.7855,16.1379-27.1461,26.7461
		c-12.2897,17.7123-22.511,36.5633-29.4009,57.0095c-3.4623,10.2739-4.6099,21.1691-5.5592,31.9561
		c-2.1554,24.4928,4.0475,47.2504,14.9133,68.9884c2.5569,5.1152,5.7144,9.7632,9.5363,13.975
		c10.9639,12.0816,21.0619,25.1559,35.5275,33.4364c10.9967,6.2947,22.3129,12.0305,33.4609,18.063
		c6.1394,3.3221,11.494,7.8287,15.8834,13.0878c5.1908,6.2195,4.7614,13.7139,3.2168,21.4106
		c-2.6595,13.2523-11.766,20.3752-23.1185,25.4197c-8.5409,3.7952-17.6514,5.3447-26.9641,6.186
		c-3.9651,0.3582-8.037,1.1896-11.5767,3.776c-2.9301,2.1411-3.9155,4.7316-3.9546,8.0854
		c-0.0363,3.125,2.3594,3.8067,4.5297,4.4639c12.5479,3.7995,25.3561,6.6113,38.4879,6.4299
		c18.9889-0.2623,36.7344-5.3824,53.0105-15.3774c17.9537-11.0252,34.5375-23.9493,50.9281-37.0817
		c15.8224-12.6771,31.7631-25.2111,47.472-38.021c10.1603-8.2849,20.6296-16.2632,30.059-25.4135
		c6.5737-6.3794,12.2283-13.4849,16.0935-21.9322c1.4521-3.1733,3.2716-6.3042,5.4988-8.975
		c7.7803-9.33,11.0466-20.4791,12.8071-32.0605c1.1235-7.3902,4.2039-14.2972,4.2362-21.9726
		c0.0695-16.4717-1.2761-32.731-3.9205-49.0148c-2.2101-13.6094-7.4501-25.9759-12.686-38.4571
		c-4.3666-10.4088-9.0621-20.7151-15.5829-29.9312c-8.3083-11.7429-20.5454-19.092-32.4813-26.4435
		c-13.6355-8.3984-28.7312-13.6448-43.9022-18.6954c-14.0437-4.6754-28.5338-5.0787-43.0308-5.9057"/>
	<path id="queDot" d="M1426.8381,562.7048c-5.8633,2.6277-11.5951,5.4216-17.049,8.9209c-13.6068,8.7303-18.2745,22.1166-19.8124,37.0789
		c-0.3381,3.2911,0.885,6.7906,2.3442,9.9905c6.5142,14.2842,18.9652,20.6812,33.0172,24.9839
		c4.7552,1.4562,9.6488,0.9456,14.5,0.9829c1.2308,0.0094,2.2921-0.2026,3.5597-0.8688c8.3884-4.4086,16.3624-9.4135,21.3477-17.664
		c4.8492-8.025,8.8197-16.3555,6.2743-26.4815c-1.0475-4.1666-1.1707-8.6483-2.1106-12.9658
		c-2.3638-10.8592-9.3818-16.9673-19.5792-19.9507c-7.178-2.1001-14.5842-3.1021-21.9919-4.0262"/>
	<path id="math" d="M840.3381,739.1496c8.4061,5.9102,17.5944,9.1183,27.999,7.9885c6.7244-0.7302,12.6687-4.0236,19.0341-5.8755
	c9.1293-2.6562,17.3669-10.2227,27.9702-5.6194c0.1402,0.0609,0.3339,0.0309,0.4962,0.0042
	c5.79-0.9502,10.9833-2.3526,15.6691-6.8177c7.7907-7.4238,15.0017-15.372,22.1544-23.3287
	c3.5342-3.9316,7.5741-9.5422,6.3924-15.9912c1.2656-1.4982,2.2817-3.2133,2.8063-5.3376
	c1.2408-5.0244,4.3982-9.0565,7.5281-12.9614c4.3805-5.4649,5.6086-15.067,3.9682-23.2956
	c4.2089-2.8986,2.9591-8.8378,2.4802-12.8015l0.0004,0.0002c1.1649-1.9265,1.447-4.3755,1.3453-7.4409
	c-0.1418-4.2752,0.3463-8.6714-0.377-12.979c-0.4088-2.4343-1.1613-4.6714-2.7128-6.3043l-0.0389-0.0379l-3.715-11.0953
	l0.0042,0.0021c0.8468-1.6877,0.4398-3.3754-2.0042-5.0631c-0.4465-18.662,14.8387-47.8426,9.0142-52.496
	c-1.3794-1.5888-0.3638-3.1603,0.5151-4.4666c4.4982-6.6848,5.4671-15.5969,7.6732-23.0955
	c4.9937-2.232,7.1931-6.7196,8.3112-12.9106c0.5563-3.0797,3.0635-4.8078,4.3383-7.4202c2.1008,0.9038,1.0038-0.0116,5.6573,0.8709
	c1.1696,0.2218,2.3514-0.4333,3.5369-0.803c13.301-4.1488,18.659-13.7161,16.0771-27.163
	c-0.5087-2.6492-0.9586-5.3078-1.3416-7.9738c3.5488-1.3017,6.3015-4.3503,7.7178-7.498
	c4.7908-10.6469,7.6893-22.0481,12.957-32.5115c0.4547-0.9033,0.967-2.0986,0.95-2.9753
	c-0.1248-6.3642,2.6854-12.0232,4.2224-17.9629c0.5243-2.0263,0.9762-4.1106-0.9426-5.6016
	c1.4883-1.9229,2.8947-3.9376,4.3514-5.9002c0.6558-0.8833,0.2942-2.8104,0.4624-3.6431
	c7.4323-0.5301,12.1139-5.3228,13.6274-14.3019c2.4436-0.5053,4.8639-1.034,7.3668-0.5473c2.2052,0.4287,3.83-0.9899,4.9053-2.1243
	c3.6296-3.8289,7.5188-7.4665,9.2356-12.8578c0.8689-2.7292,3.0757-5.0798,5.3707-7.0339
	c10.9042-9.2839,16.4102-22.1115,22.39-34.5461c2.2766-4.7342,2.8195-10.099,3.1898-15.4391
	c0.4795-6.9123,1.4501-13.761-1.0627-20.5081c-0.9735-2.6137-1.5786-5.3644-2.5511-7.9785
	c-1.2097-3.2519-2.1461-6.2985-1.6892-10.0339c0.4161-3.4016-1.9249-6.7384-3.3456-9.9424
	c-5.7994-13.0794-11.3162-26.2015-13.5201-40.5025c-0.689-4.4697-3.5852-8.4602-6.1273-11.8514
	c-8.1138-10.8238-12.6007-23.6521-20.2605-34.6671c-3.4708-4.9912-6.5968-10.2131-11.015-14.4898
	c-2.944-2.8497-4.9094-6.1453-5.0725-10.48c-0.1748-4.6497-2.2064-8.6591-5.4495-11.9908
	c-4.7737-4.9042-7.5701-10.7028-8.5278-17.4972c-0.8024-5.6921-5.4301-9.2681-8.6525-13.3525
	c-6.1289-7.7685-12.9357-15.0331-19.3638-22.5972c-6.686-7.8677-15.5168-13.4558-22.9092-20.5781
	c-9.8656-9.5052-22.7364-14.4001-33.5793-22.3978c-5.4226-3.9997-12.0157-5.8798-18.4896-6.8533
	c-6.4921-0.9763-13.2274,0.8168-18.8906,3.9433c-12.9393,7.1436-26.8376,11.4596-41.1193,14.1397
	c-11.4113,2.1414-22.1616,6.412-33.4643,8.6891c-11.8301,2.3833-23.3671,5.8775-35.0404,8.8424
	c-8.5001,2.1589-15.1442,6.6353-20.8969,12.7264c-4.0138,4.25-8.1456,8.3775-13.1061,11.3622
	c-8.5687,5.1557-12.848,13.6076-18.024,21.5255c-6.1549,9.4152-7.746,19.4374-7.2034,30.5505
	c0.3502,7.1742-1.8123,14.5077-4.2299,21.4783c-0.8703,2.5093-0.8582,4.8244-0.1388,7.5373
	c1.3344,5.0323,1.8392,10.2876,2.6326,15.4588c0.4813,3.1366,0.8472,6.1643,4.4878,7.5563c2.3655,0.9045,3.611,3.1012,4.5439,5.4296
	c0.5524,1.3787,1.1276,2.8137,2.0104,3.9836c4.3463,5.7592,7.7801,11.8508,9.5684,18.9927
	c2.1573,8.6154,7.9151,15.2914,13.4004,22.0181c-1.2522,5.9119-3.4088,10.884-3.9461,16.9994
	c-0.3138,3.5722-1.5517,6.2078-5.0509,7.501c-0.949,0.3507-2.0588,0.6524-1.9951,1.991c0.3602,7.5586-5.1062,11.4269-10.05,15.4437
	c-4.6447,3.7737-5.9802,8.5508-4.9022,14.0365c1.5319,7.7961,0.7546,10.2438-5.5557,14.5064
	c-10.9199,7.3764-12.3892,18.6285-3.4247,28.4222c2.0117,2.1978,2.8688,4.5051,2.3471,7.0508
	c-4.5656,2.2998-6.2525,7.9752-6.2468,12.0119c0.0158,11.1894-1.903,22.2524-1.3477,33.4983
	c0.4337,8.7833-0.7299,17.6398-0.3405,26.4838c0.2347,5.3287,0.2808,10.6658,0.532,15.9936
	c0.2204,4.6768,3.7631,7.7789,8.4791,7.4754c1.9731-0.127,3.6871,0.1832,5.0015,1.7726c-5.9802,4.5062-6.8207,8.5698-7,10.4967
	c-2.6806-0.3811-5.2738,1.8288-8.8712,5.3788c-3.6232,3.5755-8.186,6.1833-11.6479,9.9548
	c-3.5208-1.0414-7.2701,0.8684-9.9448,2.471c-5.4247,3.2505-10.1037,7.4648-14.0199,12.4487
	c-2.9272,3.7252-5.6926,7.5222-9.4675,10.5448c-3.0524,2.4441-4.278,8.2573-3.541,12.6645
	c-3.5873,4.0266-6.0354,9.3176-6.3368,14.1287c-3.232,3.5414-7.0446,7.9791-8.7725,12.5958
	c-2.6651,7.1202-4.9491,14.4406-8.8987,21.0312c-3.0164,5.0333-4.2347,10.8416-6.954,16.0192
	c-1.6495,3.1407-1.6021,6.7599-0.4361,9.9327c1.4548,3.959,1.6204,7.954,1.9348,12.0331c0.5269,6.8332,1.417,13.6212,5.4557,19.4974
	c1.6613,2.4171,1.8322,5.2509,1.9613,7.9993c0.4684,9.9762,4.069,18.7581,9.4685,27.0355c2.278,3.492,4.8447,3.5707,8.5941,3.183
	c2.8353-0.2932,6.7542-2.3969,9.0469,1.5995c-0.7956,2.4452-3.7497,3.0995-4.0805,5.0651
	c1.9944,6.8348,7.8842,10.1547,11.0966,15.5469c4.3323,7.272,9.4661,14.0109,14.7923,20.6423
	c5.1821,6.452,11.2286,11.3736,18.6008,14.9398c3.3653,1.6279,7.1704,2.7068,9.5084,5.965c3.4545,4.814,8.2123,6.6716,14.0068,7.061
	c7.5807,0.5095,14.8422,2.1273,20.5477,7.8834c2.2126,2.2324,5.0402,3.8049,7.9633,5.0262
	c18.5561,7.7532,37.6072,12.6717,57.9984,10.5558"/>
</svg>
