<svg version="1.1" xmlns="http://www.w3.org/2000/svg" xmlns:xlink="http://www.w3.org/1999/xlink" x="0px" y="0px"
	 width="628.4391px" height="473.0844px" viewBox="0 0 628.4391 473.0844" enable-background="new 0 0 628.4391 473.0844"
	 xml:space="preserve">
<path fill="#010202" d="M216.1349,278.1085c0,0-24.8877-17.4821-42.8488-35.7831c-16.3241-16.6331-29.4455-48.7931-24.1512-111.2169
	c0,0-40.4478-12.2719-81.0469,2.9528L0,152.6692v-3.8062c0,0,77.3919-21.1748,85.4271-22.4288c0,0,25.3744-9.7121,64.3875,1.072
	l1.4273-8.881c2.1415-0.0751-65.8148-20.9339-89.0747-24.3171c-12.7401-2.6432-19.348-0.3172-56.3364-2.7654l0.0898-2.7323
	l43.3479,1.0573c13.173,0.3172,13.173,0.3172,19.8766,2.7489c7.2808,2.6411,35.9471,7.6123,35.9471,7.6123l46.8369,15.9647
	c0,0,6.2379-34.9955,61.2157-74.7487L238.3077,0l39.9647,24.74c0,0,94.6658-16.4933,181.5,48.8457l69.0721-6.3436l-15.2246,66.6078
	c0,0,16.0348,10.1498,11.5064,78.0263l103.3128,71.0483l-9.5154,5.0749l-98.3258-64.0704c0,0-24.7401,98.9602-161.1274,99.5945
	l-17.7621,60.2642c0,0,15.859,0.9766,13.9559,10.3209s-20.9339,6.1725-20.9339,6.1725l-3.8062,13.9559
	c0,0,9.5154,22.8369,17.1277,26.0088c0,0,2.5374,11.4185-12.0528,8.2467c-14.5903-3.1718-34.2554-24.1057-31.718-34.2554
	c1.0484-4.1935,4.479-15.8586,8.1445-28.1056l-3.5453,0.6696l-16.3348,46.784c0,0,3.8062,42.5021-5.3921,39.3303
	c-9.1982-3.1718-21.5682-13.3216-21.8854-45.0396c8.881-27.9118,23.4279-69.7946,23.4279-69.7946s-11.3751,2.2353-14.5469-8.2317
	l-28.5462,68.5109c0,0-27.9118,45.3568-39.0131,35.8413c-11.1013-9.5154,12.37-48.5285,12.37-48.5285l15.9512-60.0068
	c-9.9248,0.0598-14.3653-6.601-14.3653-6.601s-14.9075,50.4316-62.1673,8.5638c0.3172-12.0528,21.5682-5.7092,28.229-6.6608
	c6.6608-0.9516,11.1013-9.5154,11.1013-9.5154s-46.6255,23.4713-83.7355-44.7224c-6.978-10.4669-16.7422-9.048-21.5682-19.6652
	c-3.1718-6.978,7.2962-4.7232,13.3216-5.3921c24.3834-2.7066,26.0088,28.8634,60.8986,28.8634
	C187.4794,294.1745,211.3477,295.2944,216.1349,278.1085z"/>
</svg>
