{
  "accessors": [
    {
      "bufferView": 2,
      "componentType": 5126,
      "count": 65532,
      "max": [
        214.59957885742188,
        166.76637268066406,
        297.04779052734375
      ],
      "min": [
        85.719573974609375,
        12.645240783691406,
        0.30018138885498047
      ],
      "type": "VEC3"
    },
    {
      "bufferView": 2,
      "byteOffset": 786384,
      "componentType": 5126,
      "count": 65532,
      "max": [
        0.99999988079071045,
        0.9999997615814209,
        1
      ],
      "min": [
        -0.9987143874168396,
        -0.99467957019805908,
        -0.976173996925354
      ],
      "type": "VEC3"
    },
    {
      "bufferView": 3,
      "componentType": 5126,
      "count": 65532,
      "max": [
        0.99980813264846802,
        0.99960285425186157,
        0.99999994039535522,
        1
      ],
      "min": [
        -1,
        -0.99459964036941528,
        -0.99996805191040039,
        -1
      ],
      "type": "VEC4"
    },
    {
      "bufferView": 1,
      "componentType": 5126,
      "count": 65532,
      "max": [
        0.99279999732971191,
        0.99911797046661377
      ],
      "min": [
        0.02719699963927269,
        0.00080799998249858618
      ],
      "type": "VEC2"
    },
    {
      "bufferView": 0,
      "componentType": 5125,
      "count": 355425,
      "max": [
        65531
      ],
      "min": [
        0
      ],
      "type": "SCALAR"
    },
    {
      "bufferView": 2,
      "byteOffset": 1572768,
      "componentType": 5126,
      "count": 65532,
      "max": [
        190.19125366210938,
        143.41436767578125,
        299.82296752929688
      ],
      "min": [
        80.47247314453125,
        0,
        94.904197692871094
      ],
      "type": "VEC3"
    },
    {
      "bufferView": 2,
      "byteOffset": 2359152,
      "componentType": 5126,
      "count": 65532,
      "max": [
        0.99997645616531372,
        0.99803698062896729,
        0.99968504905700684
      ],
      "min": [
        -0.99981045722961426,
        -0.99999934434890747,
        -0.99287247657775879
      ],
      "type": "VEC3"
    },
    {
      "bufferView": 3,
      "byteOffset": 1048512,
      "componentType": 5126,
      "count": 65532,
      "max": [
        0.99999922513961792,
        0.99934196472167969,
        0.99999970197677612,
        1
      ],
      "min": [
        -0.99996626377105713,
        -0.99885702133178711,
        -0.99992471933364868,
        -1
      ],
      "type": "VEC4"
    },
    {
      "bufferView": 1,
      "byteOffset": 524256,
      "componentType": 5126,
      "count": 65532,
      "max": [
        0.9992070198059082,
        0.99943900108337402
      ],
      "min": [
        0.00064300000667572021,
        0.00084799999604001641
      ],
      "type": "VEC2"
    },
    {
      "bufferView": 0,
      "byteOffset": 1421700,
      "componentType": 5125,
      "count": 313428,
      "max": [
        65531
      ],
      "min": [
        0
      ],
      "type": "SCALAR"
    },
    {
      "bufferView": 2,
      "byteOffset": 3145536,
      "componentType": 5126,
      "count": 65532,
      "max": [
        180.284423828125,
        146.53814697265625,
        177.30740356445312
      ],
      "min": [
        82.004463195800781,
        76.383392333984375,
        45.432727813720703
      ],
      "type": "VEC3"
    },
    {
      "bufferView": 2,
      "byteOffset": 3931920,
      "componentType": 5126,
      "count": 65532,
      "max": [
        0.99997204542160034,
        0.99999916553497314,
        0.99950778484344482
      ],
      "min": [
        -0.98466217517852783,
        -0.99282217025756836,
        -0.99088424444198608
      ],
      "type": "VEC3"
    },
    {
      "bufferView": 3,
      "byteOffset": 2097024,
      "componentType": 5126,
      "count": 65532,
      "max": [
        0.99624466896057129,
        0.99953573942184448,
        0.99999839067459106,
        1
      ],
      "min": [
        -0.99999994039535522,
        -0.99959069490432739,
        -0.99831455945968628,
        -1
      ],
      "type": "VEC4"
    },
    {
      "bufferView": 1,
      "byteOffset": 1048512,
      "componentType": 5126,
      "count": 65532,
      "max": [
        0.98754900693893433,
        0.99945002794265747
      ],
      "min": [
        0.00087400001939386129,
        0.00085200002649798989
      ],
      "type": "VEC2"
    },
    {
      "bufferView": 0,
      "byteOffset": 2675412,
      "componentType": 5125,
      "count": 333888,
      "max": [
        65531
      ],
      "min": [
        0
      ],
      "type": "SCALAR"
    },
    {
      "bufferView": 2,
      "byteOffset": 4718304,
      "componentType": 5126,
      "count": 65532,
      "max": [
        189.35374450683594,
        145.39744567871094,
        169.77095031738281
      ],
      "min": [
        55.637893676757812,
        21.36865234375,
        27.197177886962891
      ],
      "type": "VEC3"
    },
    {
      "bufferView": 2,
      "byteOffset": 5504688,
      "componentType": 5126,
      "count": 65532,
      "max": [
        0.99999284744262695,
        0.99923902750015259,
        0.99924802780151367
      ],
      "min": [
        -0.99709224700927734,
        -0.99999874830245972,
        -0.99636882543563843
      ],
      "type": "VEC3"
    },
    {
      "bufferView": 3,
      "byteOffset": 3145536,
      "componentType": 5126,
      "count": 65532,
      "max": [
        0.99999892711639404,
        0.9950518012046814,
        0.99999994039535522,
        1
      ],
      "min": [
        -0.99941027164459229,
        -0.99955403804779053,
        -0.99999308586120605,
        -1
      ],
      "type": "VEC4"
    },
    {
      "bufferView": 1,
      "byteOffset": 1572768,
      "componentType": 5126,
      "count": 65532,
      "max": [
        0.99792098999023438,
        0.99949997663497925
      ],
      "min": [
        0.0037643532268702984,
        0.00075100001413375139
      ],
      "type": "VEC2"
    },
    {
      "bufferView": 0,
      "byteOffset": 4010964,
      "componentType": 5125,
      "count": 332775,
      "max": [
        65531
      ],
      "min": [
        0
      ],
      "type": "SCALAR"
    },
    {
      "bufferView": 2,
      "byteOffset": 6291072,
      "componentType": 5126,
      "count": 65532,
      "max": [
        186.71316528320312,
        144.38420104980469,
        295.85415649414062
      ],
      "min": [
        42.65008544921875,
        1.4810333251953125,
        37.816547393798828
      ],
      "type": "VEC3"
    },
    {
      "bufferView": 2,
      "byteOffset": 7077456,
      "componentType": 5126,
      "count": 65532,
      "max": [
        0.99806404113769531,
        0.9978717565536499,
        0.99943870306015015
      ],
      "min": [
        -0.99999725818634033,
        -0.99999958276748657,
        -0.99886155128479004
      ],
      "type": "VEC3"
    },
    {
      "bufferView": 3,
      "byteOffset": 4194048,
      "componentType": 5126,
      "count": 65532,
      "max": [
        0.99999988079071045,
        0.99976742267608643,
        0.99999469518661499,
        1
      ],
      "min": [
        -0.99660778045654297,
        -0.9872855544090271,
        -0.99999964237213135,
        -1
      ],
      "type": "VEC4"
    },
    {
      "bufferView": 1,
      "byteOffset": 2097024,
      "componentType": 5126,
      "count": 65532,
      "max": [
        0.99910199642181396,
        0.99911600351333618
      ],
      "min": [
        0.0048395027406513691,
        0.00079199997708201408
      ],
      "type": "VEC2"
    },
    {
      "bufferView": 0,
      "byteOffset": 5342064,
      "componentType": 5125,
      "count": 330432,
      "max": [
        65531
      ],
      "min": [
        0
      ],
      "type": "SCALAR"
    },
    {
      "bufferView": 2,
      "byteOffset": 7863840,
      "componentType": 5126,
      "count": 65532,
      "max": [
        199.5328369140625,
        146.38412475585938,
        295.86444091796875
      ],
      "min": [
        43.003829956054688,
        1.0762557983398438,
        28.229038238525391
      ],
      "type": "VEC3"
    },
    {
      "bufferView": 2,
      "byteOffset": 8650224,
      "componentType": 5126,
      "count": 65532,
      "max": [
        0.99999743700027466,
        0.9999997615814209,
        0.99657738208770752
      ],
      "min": [
        -0.99999958276748657,
        -0.9983331561088562,
        -0.99959254264831543
      ],
      "type": "VEC3"
    },
    {
      "bufferView": 3,
      "byteOffset": 5242560,
      "componentType": 5126,
      "count": 65532,
      "max": [
        0.99999839067459106,
        0.99944514036178589,
        0.99999469518661499,
        1
      ],
      "min": [
        -0.99999874830245972,
        -0.99866282939910889,
        -0.99999934434890747,
        -1
      ],
      "type": "VEC4"
    },
    {
      "bufferView": 1,
      "byteOffset": 2621280,
      "componentType": 5126,
      "count": 65532,
      "max": [
        0.99921399354934692,
        0.99949800968170166
      ],
      "min": [
        0.00078300002496689558,
        0.00074300001142546535
      ],
      "type": "VEC2"
    },
    {
      "bufferView": 0,
      "byteOffset": 6663792,
      "componentType": 5125,
      "count": 291702,
      "max": [
        65531
      ],
      "min": [
        0
      ],
      "type": "SCALAR"
    },
    {
      "bufferView": 2,
      "byteOffset": 9436608,
      "componentType": 5126,
      "count": 65532,
      "max": [
        178.10235595703125,
        172.64202880859375,
        293.30645751953125
      ],
      "min": [
        0.88568115234375,
        28.235572814941406,
        1.265535831451416
      ],
      "type": "VEC3"
    },
    {
      "bufferView": 2,
      "byteOffset": 10222992,
      "componentType": 5126,
      "count": 65532,
      "max": [
        0.99999970197677612,
        1,
        0.9990001916885376
      ],
      "min": [
        -0.99999988079071045,
        -0.99997228384017944,
        -0.99984556436538696
      ],
      "type": "VEC3"
    },
    {
      "bufferView": 3,
      "byteOffset": 6291072,
      "componentType": 5126,
      "count": 65532,
      "max": [
        0.99999791383743286,
        0.99634450674057007,
        0.99999982118606567,
        1
      ],
      "min": [
        -0.99999970197677612,
        -0.99959337711334229,
        -0.99999910593032837,
        -1
      ],
      "type": "VEC4"
    },
    {
      "bufferView": 1,
      "byteOffset": 3145536,
      "componentType": 5126,
      "count": 65532,
      "max": [
        0.99891799688339233,
        0.99949401617050171
      ],
      "min": [
        0.0005549999768845737,
        0.00081100000534206629
      ],
      "type": "VEC2"
    },
    {
      "bufferView": 0,
      "byteOffset": 7830600,
      "componentType": 5125,
      "count": 332403,
      "max": [
        65531
      ],
      "min": [
        0
      ],
      "type": "SCALAR"
    },
    {
      "bufferView": 2,
      "byteOffset": 11009376,
      "componentType": 5126,
      "count": 65532,
      "max": [
        210.5623779296875,
        172.67295837402344,
        297.7989501953125
      ],
      "min": [
        0.9491729736328125,
        3.493255615234375,
        0
      ],
      "type": "VEC3"
    },
    {
      "bufferView": 2,
      "byteOffset": 11795760,
      "componentType": 5126,
      "count": 65532,
      "max": [
        0.99999970197677612,
        0.9999968409538269,
        0.99999994039535522
      ],
      "min": [
        -0.99999982118606567,
        -0.99999982118606567,
        -0.99998092651367188
      ],
      "type": "VEC3"
    },
    {
      "bufferView": 3,
      "byteOffset": 7339584,
      "componentType": 5126,
      "count": 65532,
      "max": [
        0.99999988079071045,
        0.99949038028717041,
        0.99999988079071045,
        1
      ],
      "min": [
        -0.99999940395355225,
        -0.99958759546279907,
        -0.99999982118606567,
        -1
      ],
      "type": "VEC4"
    },
    {
      "bufferView": 1,
      "byteOffset": 3669792,
      "componentType": 5126,
      "count": 65532,
      "max": [
        0.99912500381469727,
        0.99945199489593506
      ],
      "min": [
        0.0005080000264570117,
        0.00074699998367577791
      ],
      "type": "VEC2"
    },
    {
      "bufferView": 0,
      "byteOffset": 9160212,
      "componentType": 5125,
      "count": 298098,
      "max": [
        65531
      ],
      "min": [
        0
      ],
      "type": "SCALAR"
    },
    {
      "bufferView": 2,
      "byteOffset": 12582144,
      "componentType": 5126,
      "count": 65532,
      "max": [
        206.747802734375,
        155.13095092773438,
        292.91085815429688
      ],
      "min": [
        16.587753295898438,
        4.0535888671875,
        19.088729858398438
      ],
      "type": "VEC3"
    },
    {
      "bufferView": 2,
      "byteOffset": 13368528,
      "componentType": 5126,
      "count": 65532,
      "max": [
        0.99986249208450317,
        0.99996781349182129,
        0.99997937679290771
      ],
      "min": [
        -0.99998897314071655,
        -0.99997228384017944,
        -0.99998635053634644
      ],
      "type": "VEC3"
    },
    {
      "bufferView": 3,
      "byteOffset": 8388096,
      "componentType": 5126,
      "count": 65532,
      "max": [
        0.99999445676803589,
        0.99888956546783447,
        0.99999880790710449,
        1
      ],
      "min": [
        -0.99999821186065674,
        -0.99758380651473999,
        -0.99999964237213135,
        -1
      ],
      "type": "VEC4"
    },
    {
      "bufferView": 1,
      "byteOffset": 4194048,
      "componentType": 5126,
      "count": 65532,
      "max": [
        0.9991919994354248,
        0.99949997663497925
      ],
      "min": [
        0.00053800002206116915,
        0.00075800000922754407
      ],
      "type": "VEC2"
    },
    {
      "bufferView": 0,
      "byteOffset": 10352604,
      "componentType": 5125,
      "count": 296781,
      "max": [
        65531
      ],
      "min": [
        0
      ],
      "type": "SCALAR"
    },
    {
      "bufferView": 2,
      "byteOffset": 14154912,
      "componentType": 5126,
      "count": 28137,
      "max": [
        197.18478393554688,
        166.57023620605469,
        300.4554443359375
      ],
      "min": [
        0,
        0.70853424072265625,
        1.0713491439819336
      ],
      "type": "VEC3"
    },
    {
      "bufferView": 2,
      "byteOffset": 14492556,
      "componentType": 5126,
      "count": 28137,
      "max": [
        0.99999779462814331,
        0.99998992681503296,
        0.99999701976776123
      ],
      "min": [
        -0.99999958276748657,
        -0.99999946355819702,
        -0.99991196393966675
      ],
      "type": "VEC3"
    },
    {
      "bufferView": 3,
      "byteOffset": 9436608,
      "componentType": 5126,
      "count": 28137,
      "max": [
        0.99999862909317017,
        0.99980872869491577,
        0.99999839067459106,
        1
      ],
      "min": [
        -0.99999505281448364,
        -0.9973597526550293,
        -0.99999886751174927,
        -1
      ],
      "type": "VEC4"
    },
    {
      "bufferView": 1,
      "byteOffset": 4718304,
      "componentType": 5126,
      "count": 28137,
      "max": [
        0.99898499250411987,
        0.99949800968170166
      ],
      "min": [
        0,
        0
      ],
      "type": "VEC2"
    },
    {
      "bufferView": 0,
      "byteOffset": 11539728,
      "componentType": 5125,
      "count": 114912,
      "max": [
        28136
      ],
      "min": [
        0
      ],
      "type": "SCALAR"
    }
  ],
  "asset": {
    "extras": {
      "author": "The British Museum (https://sketchfab.com/britishmuseum)",
      "license": "CC-BY-4.0 (http://creativecommons.org/licenses/by/4.0/)",
      "source": "https://sketchfab.com/3d-models/ramesses-ii-c98e1cab68134f4283f0448966f0835b",
      "title": "Ramesses II"
    },
    "generator": "Sketchfab-6.99.1",
    "version": "2.0"
  },
  "bufferViews": [
    {
      "buffer": 0,
      "byteLength": 11999376,
      "byteOffset": 0,
      "name": "floatBufferViews",
      "target": 34963
    },
    {
      "buffer": 0,
      "byteLength": 4943400,
      "byteOffset": 11999376,
      "byteStride": 8,
      "name": "floatBufferViews",
      "target": 34962
    },
    {
      "buffer": 0,
      "byteLength": 14830200,
      "byteOffset": 16942776,
      "byteStride": 12,
      "name": "floatBufferViews",
      "target": 34962
    },
    {
      "buffer": 0,
      "byteLength": 9886800,
      "byteOffset": 31772976,
      "byteStride": 16,
      "name": "floatBufferViews",
      "target": 34962
    }
  ],
  "buffers": [
    {
      "byteLength": 41659776,
      "uri": "ramesses.bin"
    }
  ],
  "images": [
    {
      "uri": "textures/material_baseColor.jpeg"
    }
  ],
  "materials": [
    {
      "doubleSided": true,
      "emissiveFactor": [
        0,
        0,
        0
      ],
      "name": "material",
      "pbrMetallicRoughness": {
        "baseColorFactor": [
          1,
          1,
          1,
          1
        ],
        "baseColorTexture": {
          "index": 0,
          "texCoord": 0
        },
        "metallicFactor": 0,
        "roughnessFactor": 0.59999999999999998
      }
    }
  ],
  "meshes": [
    {
      "primitives": [
        {
          "attributes": {
            "NORMAL": 1,
            "POSITION": 0,
            "TANGENT": 2,
            "TEXCOORD_0": 3
          },
          "indices": 4,
          "material": 0,
          "mode": 4
        }
      ]
    },
    {
      "primitives": [
        {
          "attributes": {
            "NORMAL": 6,
            "POSITION": 5,
            "TANGENT": 7,
            "TEXCOORD_0": 8
          },
          "indices": 9,
          "material": 0,
          "mode": 4
        }
      ]
    },
    {
      "primitives": [
        {
          "attributes": {
            "NORMAL": 11,
            "POSITION": 10,
            "TANGENT": 12,
            "TEXCOORD_0": 13
          },
          "indices": 14,
          "material": 0,
          "mode": 4
        }
      ]
    },
    {
      "primitives": [
        {
          "attributes": {
            "NORMAL": 16,
            "POSITION": 15,
            "TANGENT": 17,
            "TEXCOORD_0": 18
          },
          "indices": 19,
          "material": 0,
          "mode": 4
        }
      ]
    },
    {
      "primitives": [
        {
          "attributes": {
            "NORMAL": 21,
            "POSITION": 20,
            "TANGENT": 22,
            "TEXCOORD_0": 23
          },
          "indices": 24,
          "material": 0,
          "mode": 4
        }
      ]
    },
    {
      "primitives": [
        {
          "attributes": {
            "NORMAL": 26,
            "POSITION": 25,
            "TANGENT": 27,
            "TEXCOORD_0": 28
          },
          "indices": 29,
          "material": 0,
          "mode": 4
        }
      ]
    },
    {
      "primitives": [
        {
          "attributes": {
            "NORMAL": 31,
            "POSITION": 30,
            "TANGENT": 32,
            "TEXCOORD_0": 33
          },
          "indices": 34,
          "material": 0,
          "mode": 4
        }
      ]
    },
    {
      "primitives": [
        {
          "attributes": {
            "NORMAL": 36,
            "POSITION": 35,
            "TANGENT": 37,
            "TEXCOORD_0": 38
          },
          "indices": 39,
          "material": 0,
          "mode": 4
        }
      ]
    },
    {
      "primitives": [
        {
          "attributes": {
            "NORMAL": 41,
            "POSITION": 40,
            "TANGENT": 42,
            "TEXCOORD_0": 43
          },
          "indices": 44,
          "material": 0,
          "mode": 4
        }
      ]
    },
    {
      "primitives": [
        {
          "attributes": {
            "NORMAL": 46,
            "POSITION": 45,
            "TANGENT": 47,
            "TEXCOORD_0": 48
          },
          "indices": 49,
          "material": 0,
          "mode": 4
        }
      ]
    }
  ],
  "nodes": [
    {
      "children": [
        1
      ],
      "name": "RootNode (gltf orientation matrix)",
      "rotation": [
        -0.70710678118654746,
        -0,
        -0,
        0.70710678118654757
      ]
    },
    {
      "children": [
        2
      ],
      "name": "RootNode (model correction matrix)"
    },
    {
      "children": [
        3
      ],
      "matrix": [
        1,
        0,
        0,
        0,
        0,
        1,
        0,
        0,
        0,
        0,
        1,
        0,
        -112.91192626953125,
        -86.183158874511719,
        -1.9294531345367432,
        1
      ],
      "name": "ramesses_II_1million.obj.cleaner.materialmerger.gles"
    },
    {
      "children": [
        4,
        5,
        6,
        7,
        8,
        9,
        10,
        11,
        12,
        13
      ],
      "name": ""
    },
    {
      "mesh": 0,
      "name": ""
    },
    {
      "mesh": 1,
      "name": ""
    },
    {
      "mesh": 2,
      "name": ""
    },
    {
      "mesh": 3,
      "name": ""
    },
    {
      "mesh": 4,
      "name": ""
    },
    {
      "mesh": 5,
      "name": ""
    },
    {
      "mesh": 6,
      "name": ""
    },
    {
      "mesh": 7,
      "name": ""
    },
    {
      "mesh": 8,
      "name": ""
    },
    {
      "mesh": 9,
      "name": ""
    }
  ],
  "samplers": [
    {
      "magFilter": 9729,
      "minFilter": 9987,
      "wrapS": 10497,
      "wrapT": 10497
    }
  ],
  "scene": 0,
  "scenes": [
    {
      "name": "OSG_Scene",
      "nodes": [
        0
      ]
    }
  ],
  "textures": [
    {
      "sampler": 0,
      "source": 0
    }
  ]
}

