<svg xmlns="http://www.w3.org/2000/svg" width="2560" height="1600" xml:space="preserve"><path id="workBubble" d="M1115.838 1239.493c-25.19.697-50.32-2.11-75.498-1.432-18.176.489-36.43.718-54.478 2.657-22.059 2.371-43.834 6.886-65.025 13.766-26.67 8.66-52.51 19.273-76.979 33.03-8.76 4.927-16.292 11.593-24.03 17.947-13.152 10.8-25.377 22.465-34.471 37.012-7.95 12.716-12.604 26.476-14.686 41.452-3.166 22.772.387 44.585 5.948 66.558 3.532 13.958 11.13 24.995 20.24 35.415 12.936 14.795 29.255 25.025 46.464 34.035 4.098 2.146 7.867 4.951 12.04 6.92a328.593 328.593 0 0 0 78.465 25.594c13.462 2.588 26.97 4.926 40.534 6.767 5.724.777 11.65.933 17.478 1.102 23.673.687 47.356-.009 70.988-1.134 11.658-.555 23.383-1.082 35.036-2.582 5.726-.737 11.64-.869 17.475-1.194 10.54-.587 21.017-1.758 31.512-2.895 15.739-1.705 31.04-5.58 46.453-8.779 20.3-4.212 38.166-14.508 55.429-25.492 7.84-4.988 13.525-12.765 19.58-19.849 7.78-9.1 16.16-17.778 22.464-28.008 9.94-16.13 17.414-33.113 19.303-52.422.864-8.832 2.233-17.604 2.268-26.515.054-13.722-3.773-26.685-8.12-39.45-2.807-8.245-5.05-16.738-10.307-24.09-8.127-11.364-18.314-20.354-29.517-28.521-8.105-5.908-16.656-10.98-25.601-15.334-16.278-7.922-16.81-18.29-8.3-33.971 7.477-13.776 20.426-22.33 33.335-30.58 14.7-9.396 31.128-15.1 46.996-22.003 3.693-1.606 7.397-3.206 10.983-5.03 2.413-1.226 2.921-4.54.988-6.423-2.606-2.54-5.654-4.052-9.452-4.629-11.042-1.678-22.062-.92-33.004.206-15.072 1.552-29.836 4.567-44.05 10.29-17.48 7.037-33.854 16.32-50.962 24.088-16.074 7.299-31.774 15.506-48.996 20.008-6.593 1.723-13.33 2.688-20.003 3.986"/><path id="queMark" d="M1659.838 390.759c-6.69 2.134-13.682.988-20.527 1.763-15.1 1.708-29.754 5.096-43.392 11.408-20.285 9.388-41.6 16.97-59.556 30.847-10.047 7.764-18.664 17.03-26.487 26.989-5.893 7.5-11.87 15.034-14.524 24.467-2.948 10.476-4.696 20.628 1.364 31.057 11.553 19.88 39.554 25.073 56.198 9.005 5.661-5.465 9.488-12.408 15.412-17.588 11.722-10.25 21.033-23.093 34.486-31.517 17.84-11.171 36.495-17.782 57.497-10.373 11.831 4.174 23.82 7.737 36.055 10.292 9.187 1.919 18.613 2.681 27.946 3.847 10.376 1.296 20.414.086 30.52-1.282 9.452-1.279 18.342-4.075 26.582-9.324 9.244-5.89 19.55-9.992 28.455-16.573 11.961-8.84 22.477-19.03 32.16-30.367 6.44-7.538 12.708-15.248 19.19-22.76 13.853-16.052 26.33-33.012 33.774-53.322 4.902-13.379 6.806-27.306 9.902-41.03 2.766-12.262 3.149-24.833 1.63-36.962-2.82-22.498-8.242-44.554-22.8-62.928-2.648-3.342-3.768-7.352-6.37-10.6-16.328-20.383-34.63-38.42-58.496-50.011a181.939 181.939 0 0 1-15.493-8.5c-10.486-6.422-22.343-7.086-34.03-8.421-10.357-1.183-20.72-.134-30.981 1.086-7.698.916-15.074 3.618-22.535 5.808-18.908 5.55-37.287 12.31-54.484 22.054-10.26 5.813-20.28 12.1-28.893 20.11-9.48 8.819-19.772 17.002-27.023 27.935-3.84 5.792-7.018 12.03-6.657 19.445.1 2.054.541 4.152 1.668 5.413 6.762 7.568 13.85 15.231 23.954 17.907 11.213 2.97 21.881 1.582 31.532-6.235 17.072-13.826 35.478-25.237 56.866-31.774 17.962-5.49 36.136-7.671 54.532-5.587 17.173 1.946 31.918 9.589 41.45 24.817 3.96 6.325 5.548 13.715 7.017 20.959 2.469 12.184 3.987 24.539 2.987 36.97-1.44 17.904-5.868 34.984-14.325 51.045-5.659 10.745-11.352 21.364-20.127 29.912-12.933 12.6-28.017 21.806-44.96 28.06-4.432 1.636-8.938 3.522-13.527 3.748-4.955.244-10.047-.845-14.977-1.853-9.459-1.936-19.026-3.25-28.482-5.097-7.33-1.432-14.6-2.363-22.03-2.34"/><path id="queBubble" d="M1107.838 145.835c-1.112 8.965.387 17.795 2.135 26.465 1.883 9.338 4.162 18.707 7.955 27.48 5.009 11.584 11.612 22.239 21.426 30.51 5.074 4.275 10.221 8.476 15.504 12.488 10.586 8.038 22.753 12.489 35.447 16.138 20.63 5.93 41.608 10.385 62.581 14.642 19.178 3.892 38.754 5.964 58.451 5.22 17.978-.678 32.834 6.103 46.071 17.931 14.43 12.895 28.126 26.59 42.933 39.063 15.916 13.406 33.027 24.47 53.442 30.192 9.778 2.741 19.667 3.46 29.557 4.786 2.002.268 4.398.02 5.346-1.575.978-1.644-.68-3.357-1.802-4.94-6.285-8.883-15.83-13.914-24.115-20.373-11.362-8.856-22.19-18.146-30.401-30.1-3.602-5.243-5.782-11.151-6.498-17.477-1.093-9.669 5.464-18.22 16.5-22.406 10.617-4.028 21.7-6.426 32.96-8.14 18.515-2.817 36.514-7.477 54.098-14.2 9.112-3.485 16.938-8.468 23.804-14.846 11.01-10.227 22.378-20.43 29.485-33.94 6.69-12.715 12.348-25.931 16.21-39.898 3.809-13.772 3.386-27.55 1.982-41.52-.948-9.436-2.491-18.744-6.17-27.442-4.575-10.823-13.283-18.464-21.906-26.027-16.402-14.384-36.63-21.31-56.477-29.044-14.032-5.468-28.695-7.445-43.514-8.988-14.351-1.494-28.64-3.693-43.016-4.795a457.3 457.3 0 0 0-21.989-1.13c-13.995-.396-27.998.316-42.006-.399-4.437-.226-8.988.316-13.493.367-23.175.263-46.33-1.725-69.498-.94-24.653.836-48.943 3.705-72.553 11.785-23.253 7.958-45.095 18.358-63.86 34.242-18.04 15.27-31.636 33.827-37.024 57.392-1.272 5.565-1.718 11.317-2.577 16.978-.146.964.412 1.468 1.012 2.001"/><path id="work" d="M1411.338 1070.546c-4.285 4.034-6.551 9.282-9.066 14.463-4.098 8.443-8.293 16.785-10.472 26.015-2.915 12.346-4.707 24.823-4.9 37.499-.044 2.893-.8 4.979-3.567 5.982-4.044 1.465-7.049 3.32-7.139 8.51-.082 4.748-1.174 6.584 1.752 11.687 2.099-1.096 3.964-2.158 5.988.745 3.172 4.549 6.047 9.066 7.609 14.503.435 1.517-1.623 2.983-.13 4.15-1.393 2.846.59 5.182.954 7.501-2.39.711-5.527 7.074-4.449 8.852 1.527 2.517 2.665 5.271 5.354 7.142 3.275 2.278 5.478 5.645 7.124 9.376.877 1.987.472 3.29-1.058 4.525-1.162-1.522-4.876-5.113-6.982-4.443-2.249.716-3.595 2.904-3.384 4.929.39 3.752-.925 7.094 1.366 10.01-10.63 1.438-10.56 1.408-6.042 12.015 1.37 3.216 1.753 6.688.026 9.97-3.959 7.522-4.676 15.83-5.984 24l-4 .5c-3.275.933-5.39 6.656-3.441 9.963 1 1.696 2.608 3.034 3.941 4.533l.05.558c-1.651 1.45-1.487 7.902-.03 9.42.667.695 1.57 1.136 2.413 1.633 5.326 3.14 6.205 8.175 4.774 14.925-.903 4.262-.952 9.06.342 13.437 3.938 13.32 11.027 24.766 20.315 35.126 4.08 4.55 9.689 9.558 14.636 12.374l.782 1.383c1.333 4.607 4.303 7.63 8.456 10.071 11.19 6.58 17.037 15.935 23.79 26.516 1.25 1.958-.792 3.412-.19 5.562 3.219 11.497 8.58 23.375 17.71 30.984-1.75 3.45-5.175 5.6-7.023 9.377 2.932 5.778 8.934 8.266 14.53 10.964 3.861 1.861 6.603 4.646 8.313 8.175 1.502 3.098 3.528 5.057 6.64 5.904 8.535 2.326 11.192 10.335 16.557 15.655-2.523 2.771-4.468 4.867-7.019 6.442-2.04 1.259-1.2 5.507.922 7.951 3.74 4.309 8.989 6.378 13.565 9.42a267.195 267.195 0 0 0 29.885 17.211c3.686 1.816 5.56 1.615 7.614-1.646 1.328-2.108 3.227-3.877 4.42-6.045 3.54-6.436 9.718-4.548 14.508-3.738 11.968 2.024 24.012 2.38 36.038 3.29 3.013.228 6.002 1.024 9.002-.026 2.852 2.702 6.412 7.846 6.033 11.5a27.354 27.354 0 0 0-.004 5.492c.51 5.126 4.43 7.451 8.977 5.516 3.303-1.406 6.558-3.096 10.01-3.945 20.519-5.044 40.662-11.277 60.462-18.621 1.37-.508 3.603-.367 3.552-2.941-.047-2.32-1.038-4.548-3.053-4.83-2.674-.376-3.78-2.29-5.475-3.67 1.234-1.432 10.165-8.909 11.908-10.123 16.466-11.472 34.154-21.244 49.077-34.873 1.77-1.617 4.002-2.339 6.013-3.486 2.508 4.483 4.055 3.254 8.49 5.519a81.01 81.01 0 0 1 6.995 4.001c3.196 2.057 5.582.737 6.958-2.05 8.638-17.502 22.911-31.158 32.559-47.956 3.687-6.42 7.457-12.79 12.047-18.691-1.062-.618-1.433-1.06-2.019-1.362-6.632-3.433-10.084-3.862-14.28-10.439 6.772-13.23 11.24-36.023 13.75-50.484 3.636-1.182 7.048-2.878 10.52-4.453 3.329-1.51 7.169-1.885 10.24-4.764-3.007-18.7-10-36.374-16.26-54.263-4.75 1.71-11.5 1.5-11.5 1.5-3.075-6.343-4.19-13.286-5.927-20.013-2.722-10.545-7.59-20.354-10.17-30.948-.856-3.51-3.596-5.222-7.395-3.504-1.308.592-2.886.42-4.008 1.481 0 0 .377-.415-8.98-13.51-3.017-4.222-5.52-8.903-11.02-10.482-4.846-12.921-11.813-18.768-16.614-30.946-2.687-6.755-8.358-12.364-9.658-19.58-1.111-6.172-2.111-12.426-4.876-17.878-6.7-13.213-15.692-24.784-27.898-33.5-1.496-1.068-10.647-5.873-11.954-7.063-.877-3.818-2.005-8.515-6.49-8.285-9.734.498-16.386-6.67-24.964-8.886-2.26-.584-4.9-2.525-5.056-5.82-.18-3.78-2.29-5.39-5.966-6.121-2.958-.589-5.953-.51-7.346 1.732l-.678-.11c-.167-.168.19.134 0 0-8.86-6.32-11.832-6.075-15.49 3.972l-.51.526c-6.997.285-14.022-.607-21 .5-2.619-1.25-7.508-4.808-10.85-2.83-1.954-2.158-3.012-4.277-3.26-7.158-.58-6.707-9.62-12.647-15.39-10.506-5.526-6.063-16.56-10.187-21.136-17.409-1.496-2.362-1.673-3.961-.31-6.04-12.609-10.229-14.612-8.202-21.516-1.58-9.674-4.761-20.058-7.02-30.538-8.963-10.082-1.87-20.392-1.826-30.458-3.286-7.824-1.135-15.36-.781-23.042-.21-6.507-6.985-7.417-10.473-14.507-16.987-2.532-2.326-3.447-5.102-3.044-8.511.208-1.758.704-4.137-1.476-4.916-4.048-1.446-4.013-4.824-4.502-8.28-5.378-.407-10.17-2.165-14.57-5.669-3.173-2.527-7.306-4.094-11.414-4.494-3.296-.321-5.222-1.481-5.987-4.626l-1-.5c-4.407-.317-8.017 1.946-11.447 4.084-5.09 3.174-5.675 5.72-4.074 11.916.454 1.76-.12 3.417-.969 4.999-1.506 2.803-3.37 6.046-2.348 8.934 2.61 7.377-1.07 16.354 5.806 22.585.25.226.067.968.026 1.464-.192 2.304.716 3.46 2.937 4.63 4.362 2.299 8.258 5.579 10.002 10.39 2.382 6.566 6.84 11.157 9.567 17.471z"/><path id="git" d="M1161.838 951.583c-4.228 8.12-8.888 9.968-18.008 9.082-6.16-.599-12.64-1.22-17.417 4.98 6.166 6.31 12.462 12.07 20.94 14.371 16.536 4.488 29.749 1.58 37.521-16.921.948-2.256.927-3.883 3.336-5.18l1.565-1.14c3.66 4.65 8.743 6.853 14.563 6.889 2.004.012 3.543-1.429 5.5-1.084-6.704 3.52-1.664 5.595-3.799 11.568-5.805 16.242-12.238 32.248-17.972 48.494-3.299 9.348-7.072 18.516-10.266 27.898-1.417 4.163-4.536 7.492-5.632 11.967-.734 2.996.048 5.672.906 7.95.897 2.377 3.548 3.768 6.801 2.165 3.2-1.575 6.263-3.106 9.015-5.515 9.877-8.644 17.219-19.344 24.303-30.145 3.674-5.602 4.628-12.637 6.951-18.97 2.464-6.719 5.402-13.1 8.605-19.468 4.366-8.678 8.3-17.586 11.161-26.925.388-1.268.901-3.206 2.927-3.52.5.665 1.231 1.26 1.464 2.01 2.021 6.504 8.496 6.833 13.105 7.529-1.833 5.165-3.903 11.436-6.141 16.42-4.055 9.024-6.377 18.558-8.843 28.045-.928 3.568-2.665 6.675-4.024 10-3.802 9.296-6.044 18.999-3.452 28.938 2.23 8.552 4.931 17.074 10.895 24.017.306.357.716.632.988 1.01 2.22 3.077 4.92 5.26 9.005 4.475 4.944-.949 2.917-5.332 3.302-8.01.706-4.896.427-9.98.156-14.964-.647-11.901 2.85-22.977 6.594-33.975 3.092-9.079 6.655-17.997 9.884-27.032 1.484 2.49 2.216 2.736 4.567 4.023-11.97 21.01-4.272 43.16 18.011 52.457 3.254 1.357 6.595 2.616 10.014 3.42 1.78.42 4.266.895 5.429-1.418 1.046-2.08.746-4.034-.9-6.02-3.122-3.77-5.926-7.79-8.71-11.843-6.39-9.306-7.21-18.602-2.344-28.599l13.515-2.959s6.13-.997 6.376-4.546c.286-4.146-10.81-8.348-13.39-9.49 7.695-19.902 14.57-40.06 18.07-60.614 6.096-1.29 11.28 1.187 16.424-.382 5.388-1.644 11.006-1.655 16.497-2.533 6.31-1.008 12.712.169 19.03-1.358 5.77-1.394 11.295-3.593 17.008-4.967 13.191-3.17 25.48-8.4 36.397-16.22 19.59-14.032 35.374-31.553 46.1-53.368 3.439-6.994 4.792-14.837 8.973-21.507 22.219 12.88 24.978 13.116 42.34 28.25 8.354 7.281 17.24 12.492 26.414 15.488 5.057 1.652 9.538 4.39 13.872 7.037 2.624 1.602 5.336 3.26 8.15 4.66.913.455.867.432 1.798.911 1.65 4.069 5.14 6.67 7.995 8.037a1 1 0 0 0 .863-1.805c-2.687-1.285-3.608-1.723-5.534-4.528 3.55 1.762 7.918 3.702 11.927 4.415a1 1 0 1 0 .352-1.969c-4.867-.867-9.368-3.186-13.72-5.43-.94-.484-1.868-.963-2.79-1.422-2.736-1.362-5.41-2.995-7.998-4.575-4.432-2.708-9.015-5.508-14.294-7.231-8.917-2.913-17.57-7.991-25.721-15.096-17.52-15.271-38.193-26.742-43.288-29.322 1.16-1.684 1.2-3.16 2.785-4.652 9.78 4.48 17.984 11.45 25.918 18.19 2.786 2.367 5.667 4.815 8.574 7.118 1.646 1.305 3.27 2.627 4.893 3.947 7.208 5.862 14.66 11.924 23.508 15.963l.53.242c2.602 1.174 5.292 2.388 5.949 5.467a.999.999 0 1 0 1.955-.418c-.867-4.067-4.312-5.623-7.08-6.873l-.523-.237c-8.615-3.932-15.64-9.646-23.077-15.696a510.938 510.938 0 0 0-4.913-3.962c-2.88-2.283-5.748-4.719-8.521-7.075-8.037-6.828-16.349-13.889-26.381-18.485 2.985-5.137.526-11.522.769-16.952.598-13.358 1.274-26.836-2.686-39.996-2.22-7.374-3.835-14.974-7.231-21.892-.995-2.028-.62-3.41.233-4.528 7.724-10.113 7.38-22.442 9.278-34.067.908-5.561 1.968-11.207 1.703-16.971-.318-6.906-1.92-8.856-8.546-8.452-11.498.701-23.097.097-34.486 2.05-5.752.987-11.814 1.15-17.016 4.405-10.632-8.677-16.157-8.947-28.106-15.296-5.324-2.829-9.955-6.614-15.362-9.263-13.343-6.54-27.39-11.08-41.521-15.465-4.073-1.264-7.91-3.377-12.029-4.391-18.044-4.443-36.595-4.509-54.968-6.224-10.745-1.003-28.852-.12-39.514-.845-3.563-5.626-10.271-7.005-14.946-11.06-5.308-4.605-11.878-7.018-17.975-11.003-5.453 5.037-8.644 12.026-13 18.12-3.136 4.39-6.753 8.455-9.197 13.381-.846 1.707-1.421 3.23-1.382 5.057-10.96 8.247-24.085 18.245-33.093 28.913-13.84 16.389-26.249 27.289-30.601 49.144-7.888-2.26-15.73-5.293-22.005-7.659-7.872-2.968-15.307-5.771-25.119-8.165-4.609-1.125-9.337-2.098-13.91-3.04-6.76-1.391-13.75-2.83-20.46-4.782-8.26-2.4-16.883-3.374-26.356-2.979-9.129.382-18.418-.204-27.4-.77-3.935-.248-8.004-.504-12.013-.677a1.011 1.011 0 0 0-1.042.956 1 1 0 0 0 .956 1.042c3.99.172 8.048.428 11.974.675 9.032.57 18.371 1.157 27.609.772 9.252-.385 17.665.563 25.713 2.902 6.788 1.973 13.817 3.42 20.616 4.82 4.555.938 9.265 1.908 13.84 3.024 9.694 2.365 17.073 5.148 24.886 8.094 6.313 2.38 12.84 4.841 20.806 7.123.092.027 1.36.363 1.451.363-.555 2.788-1.055 6.343-1.707 9.435-11.65-2.16-24.853-4.609-38.127-4.822-5.579-.08-10.906 1.068-16.064 2.188-2.33.505-4.737 1.028-7.12 1.424-14.21 2.36-28.217 6.392-41.764 10.29-6.461 1.86-13.143 3.784-19.751 5.498-11.057 2.868-20.13 5.163-28.557 7.225a1 1 0 1 0 .476 1.942c8.435-2.064 17.517-4.361 28.583-7.231 6.634-1.72 13.328-3.647 19.802-5.511 13.492-3.883 27.443-7.9 41.54-10.24 2.43-.404 4.863-.932 7.215-1.443 5.048-1.095 10.273-2.24 15.608-2.142 13.106.21 26.222 2.643 37.794 4.79-1.944 9.434-3.908 20.04-3.46 28.643.313 6.02 1.348 12.006 1.855 18.005 1.855 21.961 8.583 42.07 21.586 59.978 2.094 2.882 4.27 5.592 6.925 8.08 9.574 8.972 20.367 16.525 29.642 25.845 2.73 2.743 6.048 4.989 9.94 6.058-1.702 2.83-1.243 4.23-2.634 7.218-1.739 3.733-4.096 5.683-8.131 5.397-1.548-.11-2.62.378-3.503 1.539-1.425-.604-4.084.668-5.498.486-1.488-.191-2.696.729-4.014.937-5.29.836-10.512 2.865-16.025.669-1.668-.664-4.13 1.486-5.947 1.907-3.749-3.783-9.176-4.384-14.22-2.305-3.75-3.917-10.007-4.374-14.271-8.03-1.182-1.013-.708-.944-2.205-1.376-1.808-1.792-2.879-4.661-5.831-4.536l-.33-.21c-.66-2.422-2.195-4.16-4.691-4.93-2.859-2.882-5.988-5.571-10.072-5.296-.877-2.734-3.081-3.587-5.875-4.389-4.97-1.307-9.951-1.571-15.022-1.435-2.228.06-4.438.215-5.456 2.535-.771 1.756.717 3.107 1.494 4.458 2.211 3.842 5.348 6.905 9.485 8.46 8.084 3.04 12.438 9.878 16.314 16.647 5.109 8.923 9.917 17.835 17.623 24.944 13.518 12.47 28.966 17.28 47.046 12.974 2.793-.666 5.66-.902 8.494-.024"/><path id="mathBubble" d="M754.838 750.146c-7.742 2.146-13.038 7.842-16.81 14.11-8.874 14.743-18.734 29.077-23.683 45.873-2.595 8.81-3.762 17.85-4.563 26.985-.864 9.852-1.327 19.644.01 29.502 1.217 8.968 2.37 17.968 2.927 26.993.347 5.621-.018 11.32-.239 16.993-.692 17.81-11.41 31.447-18.754 46.425-8.17 16.663-11.928 34.15-13.021 52.53-.538 9.043-.01 18.013.244 26.997.246 8.642 3.839 16.677 5.895 24.993 4.296 17.374 13.193 32.437 25.18 45.314 8.255 8.866 19.065 14.94 29.82 20.658 15.21 8.086 31.556 13.233 48.017 17.922a587.172 587.172 0 0 0 37.998 9.482c12.321 2.636 24.82 4.06 37.467 4.805 11.353.668 22.68.891 34.01.71 12.95-.209 25.712-2.491 38.51-4.358 14.351-2.092 27.81-7.224 41.456-11.668 6.127-1.995 11.54-5.814 16.501-9.928 25.163-20.86 43.675-46.225 53.156-77.897 2.795-9.336 1.443-18.342.379-27.528-3.087-26.66-15.836-49.03-31.608-69.896-4.83-6.39-11.757-10.926-17.959-15.995-10.925-8.93-21.992-17.684-34.394-24.643-11.928-6.694-24.548-10.743-38.013-13.076-13.287-2.302-26.69-3.21-40.036-4.767-6.115-.713-12.33-.42-18.507-.816-7.14-.459-14.317-1.024-21.475-1.406-22.205-1.187-43.762-5.716-62.922-17.494-13.88-8.534-22.794-21.72-29.597-36.344-3.252-6.99-5.64-14.173-5.488-21.998.265-13.697-.536-27.5 2.594-40.966 1.714-7.377 3.281-14.846 7.294-21.581 2.297-3.858.282-7.932-3.889-9.93"/><path id="gitBubble" d="M1732.838 590.196c-6.114 1.148-12.42 1.195-18.502 1.232-15.116.09-28.892 4.552-42.497 10.266-12.213 5.13-23.745 11.73-34.838 18.75-10.756 6.807-19.786 16.138-27.146 26.746-12.29 17.712-22.511 36.563-29.401 57.01-3.462 10.273-4.61 21.169-5.56 31.956-2.155 24.492 4.048 47.25 14.914 68.988 2.557 5.115 5.714 9.763 9.536 13.975 10.964 12.082 21.062 25.156 35.528 33.436 10.996 6.295 22.313 12.03 33.46 18.063 6.14 3.322 11.495 7.83 15.884 13.088 5.19 6.22 4.761 13.714 3.217 21.41-2.66 13.253-11.766 20.376-23.119 25.42-8.54 3.796-17.651 5.345-26.964 6.186-3.965.359-8.037 1.19-11.576 3.776-2.93 2.142-3.916 4.732-3.955 8.086-.036 3.125 2.36 3.807 4.53 4.464 12.548 3.8 25.356 6.611 38.488 6.43 18.988-.263 36.734-5.383 53.01-15.378 17.954-11.025 34.538-23.949 50.928-37.081 15.823-12.678 31.763-25.212 47.472-38.021 10.16-8.285 20.63-16.264 30.06-25.414 6.573-6.38 12.227-13.485 16.093-21.932 1.452-3.173 3.271-6.304 5.498-8.975 7.78-9.33 11.047-20.48 12.808-32.06 1.123-7.39 4.204-14.298 4.236-21.973.07-16.472-1.276-32.731-3.92-49.015-2.21-13.61-7.45-25.976-12.687-38.457-4.366-10.409-9.062-20.715-15.583-29.931-8.308-11.743-20.545-19.092-32.48-26.444-13.636-8.398-28.732-13.645-43.903-18.695-14.044-4.676-28.534-5.079-43.03-5.906"/><path id="queDot" d="M1426.838 562.705c-5.863 2.627-11.595 5.421-17.049 8.92-13.607 8.731-18.274 22.117-19.812 37.08-.338 3.29.885 6.79 2.344 9.99 6.514 14.284 18.965 20.681 33.017 24.984 4.755 1.456 9.649.946 14.5.983 1.23.01 2.292-.203 3.56-.869 8.388-4.409 16.362-9.413 21.348-17.664 4.849-8.025 8.82-16.355 6.274-26.481-1.048-4.167-1.17-8.649-2.11-12.966-2.365-10.86-9.383-16.968-19.58-19.95-7.178-2.101-14.584-3.103-21.992-4.027"/><path id="math" d="M840.338 739.15c8.406 5.91 17.595 9.118 28 7.988 6.724-.73 12.668-4.024 19.033-5.875 9.13-2.657 17.367-10.223 27.97-5.62.14.061.334.031.497.004 5.79-.95 10.983-2.352 15.669-6.817 7.79-7.424 15.001-15.372 22.154-23.329 3.534-3.932 7.574-9.542 6.393-15.991 1.265-1.498 2.281-3.214 2.806-5.338 1.24-5.024 4.398-9.056 7.528-12.961 4.38-5.465 5.608-15.067 3.968-23.296 4.209-2.898 2.96-8.838 2.48-12.801 1.166-1.927 1.448-4.376 1.346-7.441-.142-4.275.346-8.671-.377-12.979-.409-2.434-1.161-4.671-2.713-6.304l-.039-.038-3.715-11.096.004.003c.847-1.688.44-3.376-2.004-5.064-.446-18.662 14.839-47.842 9.014-52.496-1.379-1.588-.363-3.16.516-4.466 4.498-6.685 5.467-15.597 7.673-23.096 4.993-2.232 7.193-6.72 8.311-12.91.556-3.08 3.063-4.808 4.338-7.42 2.101.903 1.004-.012 5.658.87 1.17.222 2.351-.433 3.536-.803 13.301-4.148 18.66-13.716 16.078-27.163-.51-2.649-.959-5.307-1.342-7.973 3.549-1.302 6.301-4.35 7.718-7.498 4.79-10.647 7.69-22.048 12.957-32.512.454-.903.967-2.098.95-2.975-.125-6.364 2.685-12.023 4.222-17.963.524-2.026.976-4.11-.942-5.602 1.488-1.923 2.894-3.937 4.351-5.9.656-.883.294-2.81.462-3.643 7.433-.53 12.114-5.323 13.628-14.302 2.443-.505 4.864-1.034 7.367-.547 2.205.429 3.83-.99 4.905-2.124 3.63-3.83 7.519-7.467 9.235-12.858.87-2.73 3.076-5.08 5.371-7.034 10.904-9.284 16.41-22.112 22.39-34.546 2.277-4.734 2.82-10.1 3.19-15.44.48-6.912 1.45-13.76-1.063-20.507-.973-2.614-1.578-5.365-2.55-7.979-1.21-3.252-2.147-6.298-1.69-10.034.416-3.401-1.925-6.738-3.346-9.942-5.799-13.08-11.316-26.202-13.52-40.503-.689-4.47-3.585-8.46-6.127-11.851-8.114-10.824-12.6-23.652-20.26-34.667-3.471-4.991-6.597-10.213-11.016-14.49-2.944-2.85-4.909-6.145-5.072-10.48-.175-4.65-2.206-8.66-5.45-11.99-4.773-4.905-7.57-10.704-8.527-17.498-.803-5.692-5.43-9.268-8.653-13.353-6.129-7.768-12.936-15.033-19.364-22.597-6.686-7.867-15.516-13.456-22.909-20.578-9.865-9.505-22.736-14.4-33.58-22.398-5.422-4-12.015-5.88-18.489-6.853-6.492-.976-13.227.817-18.89 3.943-12.94 7.144-26.838 11.46-41.12 14.14-11.41 2.141-22.161 6.412-33.464 8.69-11.83 2.382-23.367 5.877-35.04 8.842-8.5 2.158-15.145 6.635-20.897 12.726-4.014 4.25-8.146 8.377-13.106 11.362-8.569 5.156-12.848 13.608-18.024 21.526-6.155 9.415-7.746 19.437-7.204 30.55.35 7.174-1.812 14.508-4.23 21.478-.87 2.51-.858 4.825-.138 7.538 1.334 5.032 1.839 10.287 2.632 15.459.481 3.136.847 6.164 4.488 7.556 2.365.904 3.611 3.101 4.544 5.43.552 1.378 1.127 2.813 2.01 3.983 4.347 5.76 7.78 11.85 9.569 18.993 2.157 8.615 7.915 15.291 13.4 22.018-1.252 5.912-3.409 10.884-3.946 17-.314 3.571-1.552 6.207-5.05 7.5-.95.351-2.06.653-1.996 1.991.36 7.559-5.106 11.427-10.05 15.444-4.645 3.774-5.98 8.55-4.902 14.036 1.532 7.797.754 10.244-5.556 14.507-10.92 7.376-12.39 18.628-3.425 28.422 2.012 2.198 2.87 4.505 2.348 7.05-4.566 2.3-6.253 7.976-6.247 12.013.015 11.19-1.903 22.252-1.348 33.498.434 8.783-.73 17.64-.34 26.484.234 5.329.28 10.666.531 15.993.22 4.677 3.764 7.78 8.48 7.476 1.973-.127 3.687.183 5.001 1.772-5.98 4.507-6.82 8.57-7 10.497-2.68-.38-5.274 1.829-8.871 5.379-3.623 3.575-8.186 6.183-11.648 9.955-3.52-1.042-7.27.868-9.945 2.47-5.425 3.251-10.104 7.466-14.02 12.45-2.927 3.725-5.692 7.522-9.467 10.544-3.053 2.444-4.278 8.258-3.541 12.665-3.588 4.026-6.036 9.317-6.337 14.128-3.232 3.542-7.045 7.98-8.773 12.596-2.665 7.12-4.949 14.44-8.898 21.031-3.017 5.034-4.235 10.842-6.954 16.02-1.65 3.14-1.602 6.76-.436 9.932 1.454 3.96 1.62 7.954 1.934 12.033.527 6.834 1.417 13.622 5.456 19.498 1.661 2.417 1.832 5.25 1.961 8 .469 9.975 4.07 18.757 9.469 27.035 2.278 3.492 4.845 3.57 8.594 3.183 2.835-.294 6.754-2.397 9.047 1.6-.796 2.444-3.75 3.099-4.08 5.064 1.994 6.835 7.884 10.155 11.096 15.547 4.332 7.272 9.466 14.011 14.792 20.642 5.182 6.452 11.229 11.374 18.601 14.94 3.365 1.628 7.17 2.707 9.509 5.965 3.454 4.814 8.212 6.672 14.006 7.061 7.581.51 14.843 2.128 20.548 7.884 2.213 2.232 5.04 3.805 7.963 5.026 18.556 7.753 37.608 12.672 57.999 10.556"/></svg>