{
    "accessors" : [
        {
            "bufferView" : 0,
            "componentType" : 5125,
            "count" : 543117,
            "max" : [
                141018
            ],
            "min" : [
                0
            ],
            "type" : "SCALAR"
        },
        {
            "bufferView" : 1,
            "componentType" : 5126,
            "count" : 141019,
            "max" : [
                0.268204003572464,
                0.3086099922657013,
                -0.10287299752235413
            ],
            "min" : [
                -0.2897320091724396,
                -0.3761650025844574,
                -1.125722050666809
            ],
            "type" : "VEC3"
        },
        {
            "bufferView" : 2,
            "componentType" : 5126,
            "count" : 141019,
            "max" : [
                0.999969482421875,
                0.999969482421875,
                0.999969482421875
            ],
            "min" : [
                -0.999969482421875,
                -0.999969482421875,
                -0.999969482421875
            ],
            "type" : "VEC3"
        },
        {
            "bufferView" : 3,
            "componentType" : 5126,
            "count" : 141019,
            "max" : [
                0.9999773502349854,
                0.9999914169311523,
                0.9999619722366333,
                1.0
            ],
            "min" : [
                -0.999997615814209,
                -0.9999983906745911,
                -0.9999669790267944,
                -1.0
            ],
            "type" : "VEC4"
        },
        {
            "bufferView" : 4,
            "componentType" : 5126,
            "count" : 141019,
            "max" : [
                1.0,
                1.0
            ],
            "min" : [
                0.0,
                0.24770599603652954
            ],
            "type" : "VEC2"
        }
    ],
    "asset" : {
        "generator" : "Khronos Blender glTF 2.0 exporter",
        "version" : "2.0"
    },
    "bufferViews" : [
        {
            "buffer" : 0,
            "byteLength" : 2172468,
            "byteOffset" : 0,
            "target" : 34963
        },
        {
            "buffer" : 0,
            "byteLength" : 1692228,
            "byteOffset" : 2172468,
            "target" : 34962
        },
        {
            "buffer" : 0,
            "byteLength" : 1692228,
            "byteOffset" : 3864696,
            "target" : 34962
        },
        {
            "buffer" : 0,
            "byteLength" : 2256304,
            "byteOffset" : 5556924,
            "target" : 34962
        },
        {
            "buffer" : 0,
            "byteLength" : 1128152,
            "byteOffset" : 7813228,
            "target" : 34962
        }
    ],
    "buffers" : [
        {
            "byteLength" : 8941380,
            "uri" : "glTF2_PrincipledMathena.bin"
        }
    ],
    "extensionsRequired" : [
        "KHR_materials_pbrSpecularGlossiness"
    ],
    "extensionsUsed" : [
        "KHR_materials_pbrSpecularGlossiness"
    ],
    "images" : [
        {
            "name" : "negx",
            "uri" : "negx.png"
        }
    ],
    "materials" : [
        {
            "extensions" : {
                "KHR_materials_pbrSpecularGlossiness" : {
                    "diffuseTexture" : {
                        "index" : 0
                    }
                }
            },
            "name" : "Material_MR"
        }
    ],
    "meshes" : [
        {
            "name" : "Athena_Athenea_Altes_Museum_Berlin",
            "primitives" : [
                {
                    "attributes" : {
                        "NORMAL" : 2,
                        "POSITION" : 1,
                        "TANGENT" : 3,
                        "TEXCOORD_0" : 4
                    },
                    "indices" : 0
                }
            ]
        }
    ],
    "nodes" : [
        {
            "mesh" : 0,
            "name" : "Athena_Athenea_Altes_Museum_Berlin",
            "rotation" : [
                0.7071068286895752,
                0.0,
                -0.0,
                0.7071067094802856
            ],
            "translation" : [
                0.0,
                -0.6169773936271667,
                -0.0
            ]
        },
        {
            "name" : "Camera",
            "rotation" : [
                0.4619397819042206,
                0.331413596868515,
                -0.19134172797203064,
                0.8001031279563904
            ],
            "scale" : [
                0.9999999403953552,
                1.0,
                1.0
            ],
            "translation" : [
                7.0,
                6.0,
                7.0
            ]
        }
    ],
    "samplers" : [
        {}
    ],
    "scene" : 0,
    "scenes" : [
        {
            "name" : "Scene",
            "nodes" : [
                0,
                1
            ]
        }
    ],
    "textures" : [
        {
            "sampler" : 0,
            "source" : 0
        }
    ]
}
